<svg width="18" height="12" viewBox="0 0 18 12" fill="none" xmlns="http://www.w3.org/2000/svg">
<path opacity="0.4" d="M5.20248 7.19043L1.50325 7.51758C0.673083 7.51758 0 6.83794 0 5.99968C0 5.16142 0.673083 4.48178 1.50325 4.48178L5.20248 4.80893C5.85375 4.80893 6.38174 5.34207 6.38174 5.99968C6.38174 6.65839 5.85375 7.19043 5.20248 7.19043" fill="#696CE8"/>
<path d="M17.6247 7.13016C17.5668 7.18854 17.3508 7.43529 17.1479 7.64017C15.9643 8.92344 12.8738 11.0218 11.2571 11.664C11.0116 11.7665 10.3909 11.9846 10.0582 12C9.74076 12 9.43749 11.9262 9.1484 11.7808C8.78731 11.577 8.49932 11.2554 8.34005 10.8764C8.23859 10.6143 8.07932 9.82669 8.07932 9.81237C7.92114 8.95208 7.83496 7.55315 7.83496 6.00661C7.83496 4.53497 7.92114 3.19332 8.05096 2.31871C8.06514 2.30329 8.22441 1.32623 8.39786 0.991371C8.71531 0.378924 9.33603 0 10.0004 0H10.0582C10.4913 0.0143198 11.4011 0.394346 11.4011 0.407564C12.9316 1.04975 15.949 3.04681 17.1621 4.37415C17.1621 4.37415 17.5047 4.71562 17.653 4.92822C17.8843 5.23444 17.9999 5.61337 17.9999 5.99229C17.9999 6.41527 17.8701 6.80852 17.6247 7.13016" fill="#696CE8"/>
</svg>
