<svg width="50" height="50" viewBox="0 0 50 50" fill="none" xmlns="http://www.w3.org/2000/svg">
<g clip-path="url(#clip0)">
<path d="M49.0277 39.758L43.4847 36.0624L38.5571 32.7779C37.6062 32.1452 36.3281 32.3527 35.6261 33.2538L32.577 37.1736C31.922 38.0242 30.7438 38.2686 29.8046 37.7486C27.7357 36.5977 25.2891 35.5141 19.8909 30.109C14.4928 24.7039 13.4022 22.2643 12.2514 20.1954C11.7314 19.2561 11.9758 18.0779 12.8264 17.423L16.7461 14.374C17.6472 13.672 17.8547 12.394 17.222 11.4429L14.0385 6.66711L10.2419 0.972256C9.59574 0.00293168 8.3022 -0.288081 7.30319 0.311033L2.92472 2.93776C1.74144 3.63492 0.871622 4.76069 0.495454 6.08167C-0.701895 10.4471 -0.943298 20.0772 14.4901 35.5106C29.9235 50.944 39.5527 50.7019 43.9182 49.5044C45.2392 49.1283 46.3649 48.2585 47.0621 47.0751L49.6888 42.6968C50.288 41.6977 49.997 40.4042 49.0277 39.758Z" fill="#696CE8"/>
<path d="M28.4479 7.7584C36.5379 7.76739 43.094 14.3234 43.1029 22.4134C43.1029 22.8895 43.4889 23.2755 43.965 23.2755C44.4411 23.2755 44.8271 22.8896 44.8271 22.4134C44.8172 13.3716 37.4898 6.04426 28.448 6.0343C27.972 6.0343 27.5859 6.42024 27.5859 6.8964C27.5858 7.37237 27.9718 7.7584 28.4479 7.7584Z" fill="#696CE8"/>
<path d="M28.448 12.9307C33.6826 12.9369 37.9245 17.1788 37.9306 22.4133C37.9306 22.8894 38.3166 23.2754 38.7927 23.2754C39.2688 23.2754 39.6548 22.8895 39.6548 22.4133C39.6477 16.227 34.6345 11.2137 28.448 11.2065C27.972 11.2065 27.5859 11.5925 27.5859 12.0686C27.5859 12.5448 27.9719 12.9307 28.448 12.9307Z" fill="#696CE8"/>
<path d="M28.4479 18.1031C30.8273 18.106 32.7554 20.0341 32.7582 22.4134C32.7582 22.8895 33.1442 23.2755 33.6203 23.2755C34.0964 23.2755 34.4824 22.8896 34.4824 22.4134C34.4786 19.0823 31.7792 16.3828 28.448 16.379C27.972 16.379 27.5859 16.765 27.5859 17.2411C27.5858 17.7172 27.9718 18.1031 28.4479 18.1031Z" fill="#696CE8"/>
</g>
<defs>
<clipPath id="clip0">
<rect width="50" height="50" fill="white"/>
</clipPath>
</defs>
</svg>
