<svg width="64" height="64" viewBox="0 0 64 64" fill="none" xmlns="http://www.w3.org/2000/svg">
<path d="M60.4375 4.65625H33.0938V61.5312H60.4375C61.3077 61.5312 62.1423 61.1855 62.7577 60.5702C63.373 59.9548 63.7188 59.1202 63.7188 58.25V7.9375C63.7188 7.06726 63.373 6.23266 62.7577 5.61731C62.1423 5.00195 61.3077 4.65625 60.4375 4.65625Z" fill="#78B9C1"/>
<path d="M56.0625 57.1562C56.9327 57.1562 57.7673 56.8105 58.3827 56.1952C58.998 55.5798 59.3438 54.7452 59.3438 53.875V11.2188L48.4062 0.28125H17.7812C16.911 0.28125 16.0764 0.626952 15.4611 1.24231C14.8457 1.85766 14.5 2.69226 14.5 3.5625V53.875C14.5 54.7452 14.8457 55.5798 15.4611 56.1952C16.0764 56.8105 16.911 57.1562 17.7812 57.1562H56.0625Z" fill="#85CCD5"/>
<path d="M51.6875 11.2188H59.3438L48.4062 0.28125V7.9375C48.4062 8.80774 48.752 9.64234 49.3673 10.2577C49.9827 10.873 50.8173 11.2188 51.6875 11.2188Z" fill="#ADD7DB"/>
<path d="M18.875 3.5625H21.0625V5.75H18.875V3.5625Z" fill="#78B9C1"/>
<path d="M23.25 3.5625H25.4375V5.75H23.25V3.5625Z" fill="#78B9C1"/>
<path d="M27.625 3.5625H29.8125V5.75H27.625V3.5625Z" fill="#78B9C1"/>
<path d="M30.9062 41.8438H2.46875C1.26063 41.8438 0.28125 42.8231 0.28125 44.0312V61.5312C0.28125 62.7394 1.26063 63.7188 2.46875 63.7188H30.9062C32.1144 63.7188 33.0938 62.7394 33.0938 61.5312V44.0312C33.0938 42.8231 32.1144 41.8438 30.9062 41.8438Z" fill="#D65246"/>
<path d="M4.65625 34.1875V37.4688H10.125V34.1875C10.125 32.447 10.8164 30.7778 12.0471 29.5471C13.2778 28.3164 14.947 27.625 16.6875 27.625C18.428 27.625 20.0972 28.3164 21.3279 29.5471C22.5586 30.7778 23.25 32.447 23.25 34.1875V41.8438H28.7188V34.1875C28.7188 30.9966 27.4512 27.9364 25.1949 25.6801C22.9386 23.4238 19.8784 22.1563 16.6875 22.1563C13.4966 22.1563 10.4364 23.4238 8.18012 25.6801C5.92382 27.9364 4.65625 30.9966 4.65625 34.1875Z" fill="#DFDFDD"/>
<path d="M18.875 51.6875C18.8754 51.3034 18.7746 50.9261 18.5828 50.5933C18.391 50.2605 18.115 49.9841 17.7825 49.7919C17.45 49.5996 17.0728 49.4983 16.6887 49.498C16.3047 49.4978 15.9273 49.5987 15.5946 49.7906C15.2619 49.9825 14.9856 50.2586 14.7934 50.5912C14.6013 50.9237 14.5001 51.301 14.5 51.6851C14.4999 52.0691 14.601 52.4464 14.7929 52.7791C14.9849 53.1117 15.2611 53.3879 15.5938 53.58V57.1563H17.7813V53.58C18.1137 53.3884 18.3898 53.1126 18.5818 52.7804C18.7738 52.4481 18.8749 52.0712 18.875 51.6875Z" fill="#B93F33"/>
<path d="M22.1562 17.7812C21.2863 17.7803 20.4523 17.4343 19.8371 16.8191C19.222 16.204 18.876 15.3699 18.875 14.5V12.3125C18.875 11.4423 19.2207 10.6077 19.8361 9.99231C20.4514 9.37695 21.286 9.03125 22.1562 9.03125C23.0265 9.03125 23.8611 9.37695 24.4764 9.99231C25.0918 10.6077 25.4375 11.4423 25.4375 12.3125V14.5C25.4365 15.3699 25.0905 16.204 24.4754 16.8191C23.8602 17.4343 23.0262 17.7803 22.1562 17.7812ZM22.1562 11.2188C21.8663 11.2191 21.5883 11.3344 21.3832 11.5395C21.1782 11.7445 21.0628 12.0225 21.0625 12.3125V14.5C21.0625 14.7901 21.1777 15.0683 21.3829 15.2734C21.588 15.4785 21.8662 15.5938 22.1562 15.5938C22.4463 15.5938 22.7245 15.4785 22.9296 15.2734C23.1348 15.0683 23.25 14.7901 23.25 14.5V12.3125C23.2497 12.0225 23.1343 11.7445 22.9293 11.5395C22.7242 11.3344 22.4462 11.2191 22.1562 11.2188Z" fill="#78B9C1"/>
<path d="M27.625 9.03125H29.8125V17.7812H27.625V9.03125Z" fill="#78B9C1"/>
<path d="M35.2812 17.7812C34.4113 17.7803 33.5773 17.4343 32.9621 16.8191C32.347 16.204 32.001 15.3699 32 14.5V12.3125C32 11.4423 32.3457 10.6077 32.9611 9.99231C33.5764 9.37695 34.411 9.03125 35.2812 9.03125C36.1515 9.03125 36.9861 9.37695 37.6014 9.99231C38.2168 10.6077 38.5625 11.4423 38.5625 12.3125V14.5C38.5615 15.3699 38.2155 16.204 37.6004 16.8191C36.9852 17.4343 36.1512 17.7803 35.2812 17.7812ZM35.2812 11.2188C34.9913 11.2191 34.7133 11.3344 34.5082 11.5395C34.3032 11.7445 34.1878 12.0225 34.1875 12.3125V14.5C34.1875 14.7901 34.3027 15.0683 34.5079 15.2734C34.713 15.4785 34.9912 15.5938 35.2812 15.5938C35.5713 15.5938 35.8495 15.4785 36.0546 15.2734C36.2598 15.0683 36.375 14.7901 36.375 14.5V12.3125C36.3747 12.0225 36.2593 11.7445 36.0543 11.5395C35.8492 11.3344 35.5712 11.2191 35.2812 11.2188Z" fill="#78B9C1"/>
<path d="M44.0312 17.7812C43.1613 17.7803 42.3273 17.4343 41.7121 16.8191C41.097 16.204 40.751 15.3699 40.75 14.5V12.3125C40.75 11.4423 41.0957 10.6077 41.7111 9.99231C42.3264 9.37695 43.161 9.03125 44.0312 9.03125C44.9015 9.03125 45.7361 9.37695 46.3514 9.99231C46.9668 10.6077 47.3125 11.4423 47.3125 12.3125V14.5C47.3115 15.3699 46.9655 16.204 46.3504 16.8191C45.7352 17.4343 44.9012 17.7803 44.0312 17.7812ZM44.0312 11.2188C43.7413 11.2191 43.4633 11.3344 43.2582 11.5395C43.0532 11.7445 42.9378 12.0225 42.9375 12.3125V14.5C42.9375 14.7901 43.0527 15.0683 43.2579 15.2734C43.463 15.4785 43.7412 15.5938 44.0312 15.5938C44.3213 15.5938 44.5995 15.4785 44.8046 15.2734C45.0098 15.0683 45.125 14.7901 45.125 14.5V12.3125C45.1247 12.0225 45.0093 11.7445 44.8043 11.5395C44.5992 11.3344 44.3212 11.2191 44.0312 11.2188Z" fill="#78B9C1"/>
<path d="M34.1875 28.7188C33.3176 28.7178 32.4835 28.3718 31.8684 27.7566C31.2532 27.1415 30.9072 26.3074 30.9062 25.4375V23.25C30.9062 22.3798 31.252 21.5452 31.8673 20.9298C32.4827 20.3145 33.3173 19.9688 34.1875 19.9688C35.0577 19.9688 35.8923 20.3145 36.5077 20.9298C37.123 21.5452 37.4688 22.3798 37.4688 23.25V25.4375C37.4678 26.3074 37.1218 27.1415 36.5066 27.7566C35.8915 28.3718 35.0574 28.7178 34.1875 28.7188ZM34.1875 22.1562C33.8975 22.1566 33.6195 22.2719 33.4145 22.477C33.2094 22.682 33.0941 22.96 33.0938 23.25V25.4375C33.0938 25.7276 33.209 26.0058 33.4141 26.2109C33.6192 26.416 33.8974 26.5312 34.1875 26.5312C34.4776 26.5312 34.7558 26.416 34.9609 26.2109C35.166 26.0058 35.2812 25.7276 35.2812 25.4375V23.25C35.2809 22.96 35.1656 22.682 34.9605 22.477C34.7555 22.2719 34.4775 22.1566 34.1875 22.1562Z" fill="#78B9C1"/>
<path d="M39.6562 19.9688H41.8438V28.7188H39.6562V19.9688Z" fill="#78B9C1"/>
<path d="M47.3125 28.7188C46.4426 28.7178 45.6085 28.3718 44.9934 27.7566C44.3782 27.1415 44.0322 26.3074 44.0312 25.4375V23.25C44.0312 22.3798 44.377 21.5452 44.9923 20.9298C45.6077 20.3145 46.4423 19.9688 47.3125 19.9688C48.1827 19.9688 49.0173 20.3145 49.6327 20.9298C50.248 21.5452 50.5938 22.3798 50.5938 23.25V25.4375C50.5928 26.3074 50.2468 27.1415 49.6316 27.7566C49.0165 28.3718 48.1824 28.7178 47.3125 28.7188ZM47.3125 22.1562C47.0225 22.1566 46.7445 22.2719 46.5395 22.477C46.3344 22.682 46.2191 22.96 46.2188 23.25V25.4375C46.2188 25.7276 46.334 26.0058 46.5391 26.2109C46.7442 26.416 47.0224 26.5312 47.3125 26.5312C47.6026 26.5312 47.8808 26.416 48.0859 26.2109C48.291 26.0058 48.4062 25.7276 48.4062 25.4375V23.25C48.4059 22.96 48.2906 22.682 48.0855 22.477C47.8805 22.2719 47.6025 22.1566 47.3125 22.1562Z" fill="#78B9C1"/>
<path d="M52.7812 19.9688H54.9688V28.7188H52.7812V19.9688Z" fill="#78B9C1"/>
<path d="M33.0938 30.9062H35.2812V39.6562H33.0938V30.9062Z" fill="#78B9C1"/>
<path d="M40.75 39.6562C39.8801 39.6553 39.046 39.3093 38.4309 38.6941C37.8157 38.079 37.4697 37.2449 37.4688 36.375V34.1875C37.4688 33.3173 37.8145 32.4827 38.4298 31.8673C39.0452 31.252 39.8798 30.9063 40.75 30.9062C41.6202 30.9063 42.4548 31.252 43.0702 31.8673C43.6855 32.4827 44.0312 33.3173 44.0312 34.1875V36.375C44.0303 37.2449 43.6843 38.079 43.0691 38.6941C42.454 39.3093 41.6199 39.6553 40.75 39.6562ZM40.75 33.0938C40.46 33.0941 40.182 33.2094 39.977 33.4145C39.7719 33.6195 39.6566 33.8975 39.6562 34.1875V36.375C39.6562 36.6651 39.7715 36.9433 39.9766 37.1484C40.1817 37.3535 40.4599 37.4688 40.75 37.4688C41.0401 37.4688 41.3183 37.3535 41.5234 37.1484C41.7285 36.9433 41.8438 36.6651 41.8438 36.375V34.1875C41.8434 33.8975 41.7281 33.6195 41.523 33.4145C41.318 33.2094 41.04 33.0941 40.75 33.0938Z" fill="#78B9C1"/>
<path d="M49.5 39.6562C48.6301 39.6553 47.796 39.3093 47.1809 38.6941C46.5657 38.079 46.2197 37.2449 46.2188 36.375V34.1875C46.2188 33.3173 46.5645 32.4827 47.1798 31.8673C47.7952 31.252 48.6298 30.9063 49.5 30.9062C50.3702 30.9063 51.2048 31.252 51.8202 31.8673C52.4355 32.4827 52.7812 33.3173 52.7812 34.1875V36.375C52.7803 37.2449 52.4343 38.079 51.8191 38.6941C51.204 39.3093 50.3699 39.6553 49.5 39.6562ZM49.5 33.0938C49.21 33.0941 48.932 33.2094 48.727 33.4145C48.5219 33.6195 48.4066 33.8975 48.4062 34.1875V36.375C48.4062 36.6651 48.5215 36.9433 48.7266 37.1484C48.9317 37.3535 49.2099 37.4688 49.5 37.4688C49.7901 37.4688 50.0683 37.3535 50.2734 37.1484C50.4785 36.9433 50.5938 36.6651 50.5938 36.375V34.1875C50.5934 33.8975 50.4781 33.6195 50.273 33.4145C50.068 33.2094 49.79 33.0941 49.5 33.0938Z" fill="#78B9C1"/>
<path d="M37.4688 42.9375H39.6562V51.6875H37.4688V42.9375Z" fill="#78B9C1"/>
<path d="M50.5938 42.9375H52.7812V51.6875H50.5938V42.9375Z" fill="#78B9C1"/>
<path d="M45.125 51.6875C44.2551 51.6865 43.421 51.3405 42.8059 50.7254C42.1907 50.1102 41.8447 49.2762 41.8438 48.4062V46.2188C41.8438 45.3485 42.1895 44.5139 42.8048 43.8986C43.4202 43.2832 44.2548 42.9375 45.125 42.9375C45.9952 42.9375 46.8298 43.2832 47.4452 43.8986C48.0605 44.5139 48.4062 45.3485 48.4062 46.2188V48.4062C48.4053 49.2762 48.0593 50.1102 47.4441 50.7254C46.829 51.3405 45.9949 51.6865 45.125 51.6875ZM45.125 45.125C44.835 45.1253 44.557 45.2407 44.352 45.4457C44.1469 45.6508 44.0316 45.9288 44.0312 46.2188V48.4062C44.0312 48.6963 44.1465 48.9745 44.3516 49.1796C44.5567 49.3848 44.8349 49.5 45.125 49.5C45.4151 49.5 45.6933 49.3848 45.8984 49.1796C46.1035 48.9745 46.2188 48.6963 46.2188 48.4062V46.2188C46.2184 45.9288 46.1031 45.6508 45.898 45.4457C45.693 45.2407 45.415 45.1253 45.125 45.125Z" fill="#78B9C1"/>
</svg>
