<svg width="70" height="70" viewBox="0 0 70 70" fill="none" xmlns="http://www.w3.org/2000/svg">
<path d="M67.9492 24.7461H41.2891V10.3906H7.65625V33.2227H32.9492V61.7969C32.9492 62.9295 33.8674 63.8477 35 63.8477H52.6076L58.1592 69.3993C58.7467 69.9869 59.6292 70.1606 60.3941 69.8439C61.1604 69.5264 61.6602 68.7786 61.6602 67.9492V63.8477H67.9492C69.0818 63.8477 70 62.9295 70 61.7969V26.7969C70 25.6643 69.0818 24.7461 67.9492 24.7461Z" fill="url(#paint0_linear)"/>
<path d="M51.4062 51.4062C50.2737 51.4062 49.3555 52.3245 49.3555 53.457C49.3555 54.5896 50.2737 55.5078 51.4062 55.5078C52.5388 55.5078 53.457 54.5896 53.457 53.457C53.457 52.3245 52.539 51.4062 51.4062 51.4062ZM51.4062 32.9492C48.0138 32.9492 45.2539 35.7092 45.2539 39.1016C45.2539 40.2341 46.1721 41.1523 47.3047 41.1523C48.4373 41.1523 49.3555 40.2341 49.3555 39.1016C49.3555 37.9708 50.2754 37.0508 51.4062 37.0508C52.5371 37.0508 53.457 37.9708 53.457 39.1016C53.457 39.947 52.9497 40.6954 52.1645 41.0082C50.4581 41.6879 49.3555 43.314 49.3555 45.1507V45.2539C49.3555 46.3865 50.2737 47.3047 51.4062 47.3047C52.5388 47.3047 53.457 46.3865 53.457 45.2539V45.1507C53.457 45.0058 53.5475 44.8723 53.6822 44.8186C56.0371 43.8806 57.5586 41.6366 57.5586 39.1016C57.5586 35.7092 54.7988 32.9492 51.4062 32.9492ZM45.2539 14.4922C45.2539 6.50111 38.8142 0 30.8984 0H14.4922C10.6578 0 7.02844 1.51758 4.27301 4.27301C1.51758 7.02844 0 10.6578 0 14.4922V26.7969C0 29.5364 1.09676 32.1173 3.0882 34.0639C4.55834 35.5009 6.37492 36.4561 8.33984 36.8487V43.2031C8.33984 44.0326 8.83955 44.7804 9.60586 45.0978C10.3723 45.4151 11.2543 45.2397 11.8408 44.6532L19.4433 37.0508H30.8984C38.814 37.0508 45.2539 30.6109 45.2539 22.6953V14.4922ZM14.4922 20.6445C13.3596 20.6445 12.4414 19.7263 12.4414 18.5938C12.4414 17.4612 13.3596 16.543 14.4922 16.543C15.6248 16.543 16.543 17.4612 16.543 18.5938C16.543 19.7263 15.6249 20.6445 14.4922 20.6445ZM22.6953 20.6445C21.5627 20.6445 20.6445 19.7263 20.6445 18.5938C20.6445 17.4612 21.5627 16.543 22.6953 16.543C23.8279 16.543 24.7461 17.4612 24.7461 18.5938C24.7461 19.7263 23.828 20.6445 22.6953 20.6445ZM30.8984 20.6445C29.7659 20.6445 28.8477 19.7263 28.8477 18.5938C28.8477 17.4612 29.7659 16.543 30.8984 16.543C32.031 16.543 32.9492 17.4612 32.9492 18.5938C32.9492 19.7263 32.0312 20.6445 30.8984 20.6445Z" fill="url(#paint1_linear)"/>
<defs>
<linearGradient id="paint0_linear" x1="38.8281" y1="70.0001" x2="38.8281" y2="10.3906" gradientUnits="userSpaceOnUse">
<stop stop-color="#A93AFF"/>
<stop offset="1" stop-color="#FF81FF"/>
</linearGradient>
<linearGradient id="paint1_linear" x1="28.7793" y1="55.5078" x2="28.7793" y2="0" gradientUnits="userSpaceOnUse">
<stop stop-color="#FFBEF9"/>
<stop offset="1" stop-color="#FFF1FF"/>
</linearGradient>
</defs>
</svg>
