<svg width="70" height="70" viewBox="0 0 70 70" fill="none" xmlns="http://www.w3.org/2000/svg">
<path d="M70 35C70 35.3536 69.9944 35.7056 69.9846 36.0563C69.7197 44.9985 66.1001 53.0972 60.3423 59.1408C59.8564 59.6507 59.3564 60.145 58.8409 60.6253C54.4042 64.7536 48.8943 67.7451 42.7746 69.1324C40.2746 69.7 37.6719 70 35 70C32.3281 70 29.7254 69.7 27.2254 69.1324C21.1057 67.7451 15.5958 64.7536 11.1591 60.6253C10.6437 60.145 10.1436 59.6507 9.65768 59.1408C3.90004 53.0972 0.280273 44.9987 0.0154492 36.0563C0.00560547 35.7056 0 35.3536 0 35C0 34.6464 0.00560547 34.2944 0.0154492 33.9437C0.280273 25.0013 3.90004 16.9028 9.65781 10.8592C10.1437 10.3493 10.6437 9.85496 11.1593 9.37467C15.5959 5.24645 21.1058 2.2549 27.2255 0.867617C29.7254 0.299961 32.3281 0 35 0C37.6719 0 40.2746 0.299961 42.7746 0.867617C48.8943 2.2549 54.4042 5.24645 58.8409 9.37467C59.3563 9.85496 59.8564 10.3493 60.3423 10.8592C66.1001 16.9028 69.7199 25.0013 69.9846 33.9437C69.9944 34.2944 70 34.6464 70 35Z" fill="#B1E4F9"/>
<path d="M42.4944 69.1958C40.0802 69.7225 37.5718 70 35 70C15.6691 70 0 54.3296 0 35C0 15.6704 15.6691 0 35 0C37.5718 0 40.0802 0.277402 42.4944 0.80418C26.7647 4.23527 14.9872 18.2422 14.9872 35C14.9872 51.7578 26.7647 65.7649 42.4944 69.1958Z" fill="#90D8F9"/>
<path d="M69.9846 36.0563C69.9944 35.7056 70 35.3534 70 35C70 34.6464 69.9944 34.2944 69.9846 33.9437H58.9087C58.781 27.1887 57.4312 20.7461 55.0192 15.2097C56.9078 13.9439 58.6908 12.4916 60.3423 10.8592C59.8564 10.3493 59.3564 9.85496 58.8409 9.37467C57.3684 10.8273 55.7848 12.1276 54.1114 13.272C53.4816 12.0155 52.7949 10.8125 52.0507 9.67326C49.4085 5.62967 46.2438 2.64797 42.7746 0.867617C40.2746 0.299961 37.6719 0 35 0C32.3281 0 29.7254 0.299961 27.2254 0.867617C23.7564 2.64797 20.5915 5.62953 17.9493 9.67326C17.205 10.8125 16.5184 12.0157 15.8886 13.272C14.2152 12.1276 12.6316 10.8273 11.1591 9.37467C10.6437 9.85496 10.1436 10.3493 9.65768 10.8592C11.3092 12.4916 13.0922 13.9439 14.9808 15.2097C12.5687 20.7461 11.2189 27.1886 11.0913 33.9437H0.0154492C0.00560547 34.2944 0 34.6464 0 35C0 35.3536 0.00560547 35.7056 0.0154492 36.0563H11.0913C11.219 42.8113 12.5688 49.2539 14.9808 54.7903C13.0922 56.0562 11.3092 57.5084 9.65768 59.1408C10.1436 59.6507 10.6436 60.145 11.1591 60.6253C12.6316 59.1727 14.2152 57.8724 15.8886 56.728C16.5184 57.9845 17.2051 59.1875 17.9493 60.3267C20.5915 64.3703 23.7563 67.3522 27.2254 69.1324C29.7254 69.7 32.3281 70 35 70C37.6719 70 40.2746 69.7 42.7746 69.1324C46.2438 67.3522 49.4085 64.3705 52.0507 60.3267C52.795 59.1876 53.4816 57.9845 54.1114 56.728C55.7848 57.8724 57.3684 59.1727 58.8409 60.6253C59.3563 60.145 59.8564 59.6507 60.3423 59.1408C58.6908 57.5084 56.9078 56.0562 55.0192 54.7903C57.4313 49.2539 58.7811 42.8114 58.9087 36.0563H69.9846ZM56.7954 33.9437H36.0563V21.2524C42.1743 21.0771 48.0389 19.3815 53.2093 16.3461C55.3653 21.4274 56.6673 27.4593 56.7954 33.9437ZM52.3264 14.4144C47.4317 17.329 41.8657 18.9614 36.0563 19.1383V1.09717C42.68 1.59127 48.538 6.70824 52.3264 14.4144ZM33.9437 1.09717V19.1383C28.1343 18.9614 22.5683 17.329 17.6736 14.4144C21.462 6.70824 27.32 1.59127 33.9437 1.09717ZM16.7906 16.3461C21.961 19.3814 27.8255 21.0771 33.9436 21.2524V33.9437H13.2046C13.3327 27.4593 14.6346 21.4274 16.7906 16.3461ZM13.2046 36.0563H33.9436V48.7476C27.8255 48.9229 21.961 50.6185 16.7906 53.6539C14.6346 48.5726 13.3327 42.5407 13.2046 36.0563ZM17.6736 55.5856C22.5683 52.671 28.1343 51.0386 33.9437 50.8617V68.9028C27.32 68.4087 21.462 63.2918 17.6736 55.5856ZM36.0563 68.9028V50.8617C41.8657 51.0386 47.4317 52.671 52.3264 55.5856C48.538 63.2918 42.68 68.4087 36.0563 68.9028ZM53.2094 53.6539C48.039 50.6186 42.1744 48.9229 36.0564 48.7476V36.0563H56.7954C56.6673 42.5407 55.3654 48.5726 53.2094 53.6539Z" fill="#75CEF9"/>
<path d="M55.4757 45.1843C41.8245 45.7212 28.1732 45.7212 14.522 45.1843C12.3936 45.1006 10.6043 43.5406 10.2501 41.4402C9.52602 37.1467 9.52602 32.8532 10.2501 28.5597C10.6043 26.4593 12.3936 24.8993 14.522 24.8156C28.1732 24.2787 41.8245 24.2787 55.4757 24.8156C57.6041 24.8993 59.3934 26.4593 59.7476 28.5597C60.4717 32.8532 60.4717 37.1467 59.7476 41.4402C59.3935 43.5406 57.6043 45.1006 55.4757 45.1843Z" fill="#F4DD45"/>
<path d="M34.9978 46.6414C28.1424 46.6414 21.2869 46.5076 14.4795 46.2398C11.8593 46.1367 9.64198 44.1921 9.20749 41.6159C8.46729 37.2259 8.46729 32.7739 9.20749 28.384C9.64198 25.8077 11.8593 23.8631 14.4795 23.7602C28.0945 23.2248 41.9013 23.2248 55.5163 23.7602C58.1365 23.8633 60.3538 25.8078 60.7883 28.384C61.5285 32.7741 61.5285 37.2259 60.7883 41.6158C60.3538 44.1921 58.1365 46.1367 55.5163 46.2398C48.7088 46.5076 41.8533 46.6414 34.9978 46.6414ZM34.9978 25.4712C28.1701 25.4712 21.3425 25.6045 14.5625 25.8713C12.9358 25.9352 11.5597 27.1399 11.2905 28.7355C10.5896 32.8923 10.5896 37.1078 11.2905 41.2647C11.5597 42.8603 12.9357 44.0648 14.5625 44.1288C28.1224 44.662 41.8733 44.662 55.4332 44.1288C57.0599 44.0648 58.4359 42.8602 58.7051 41.2646C59.4061 37.1078 59.4061 32.8923 58.7051 28.7355C58.4359 27.1399 57.06 25.9352 55.4332 25.8713C48.6532 25.6045 41.8256 25.4712 34.9978 25.4712Z" fill="#ECC32E"/>
<path d="M51.4759 29.2326C51.4703 28.6526 50.9985 28.1864 50.4199 28.1864C50.4164 28.1864 50.4129 28.1864 50.4095 28.1865C49.826 28.1921 49.3577 28.6697 49.3633 29.2529L49.4435 37.5196L43.328 28.664C43.0653 28.2835 42.5861 28.1185 42.1443 28.2557C41.7031 28.3934 41.4023 28.8019 41.4023 29.2642V40.7571C41.4023 41.3405 41.8753 41.8134 42.4586 41.8134C43.0422 41.8134 43.5149 41.3405 43.5149 40.7571V32.6527L49.3606 41.1175C49.6864 41.5878 50.2234 41.7896 50.7289 41.6317C51.2482 41.4695 51.5835 40.9738 51.5835 40.359L51.4759 29.2326Z" fill="#544F57"/>
<path d="M27.995 28.2615C27.4418 28.0774 26.8434 28.3773 26.6595 28.931L23.6397 38.0209L20.4725 28.8964C20.2813 28.3451 19.6788 28.0537 19.1282 28.2448C18.5771 28.4361 18.2854 29.038 18.4766 29.5891L22.4161 40.9382C22.6024 41.4629 23.1001 41.8136 23.6562 41.8136H23.6654C24.2253 41.8096 24.7222 41.4509 24.9045 40.9141L28.6641 29.5969C28.8484 29.0434 28.5486 28.4454 27.995 28.2615Z" fill="#544F57"/>
<path d="M35.2939 28.1864H32.0877C31.807 28.1864 31.5378 28.2981 31.3396 28.497C31.1413 28.6958 31.0304 28.9654 31.0313 29.2461V40.7573C31.0313 41.3407 31.5042 41.8136 32.0875 41.8136C32.6709 41.8136 33.1438 41.3407 33.1438 40.7573V36.8064C33.8716 36.8024 34.8025 36.798 35.2936 36.798C37.7029 36.798 39.663 34.8665 39.663 32.4924C39.663 30.1182 37.7031 28.1864 35.2939 28.1864ZM35.2939 34.6853C34.8051 34.6853 33.8736 34.6897 33.1472 34.6935V30.2991H35.2939C36.5172 30.2991 37.5506 31.3035 37.5506 32.4922C37.5506 33.681 36.5172 34.6853 35.2939 34.6853Z" fill="#544F57"/>
</svg>
