<svg width="18" height="12" viewBox="0 0 18 12" fill="none" xmlns="http://www.w3.org/2000/svg">
<path opacity="0.4" d="M5.20248 7.1903L1.50325 7.51746C0.673083 7.51746 0 6.83782 0 5.99956C0 5.1613 0.673083 4.48166 1.50325 4.48166L5.20248 4.80881C5.85375 4.80881 6.38174 5.34195 6.38174 5.99956C6.38174 6.65827 5.85375 7.1903 5.20248 7.1903Z" fill="#0478F9"/>
<path d="M17.6256 7.13016C17.5678 7.18854 17.3518 7.43529 17.1489 7.64017C15.9653 8.92344 12.8748 11.0218 11.2581 11.664C11.0126 11.7665 10.3919 11.9846 10.0592 12C9.74173 12 9.43846 11.9262 9.14938 11.7808C8.78829 11.577 8.50029 11.2554 8.34102 10.8764C8.23957 10.6143 8.0803 9.82669 8.0803 9.81237C7.92212 8.95208 7.83594 7.55315 7.83594 6.00661C7.83594 4.53497 7.92212 3.19332 8.05193 2.31871C8.06612 2.30329 8.22539 1.32623 8.39884 0.991371C8.71629 0.378924 9.33701 0 10.0014 0H10.0592C10.4923 0.0143194 11.4021 0.394346 11.4021 0.407564C12.9326 1.04975 15.95 3.04681 17.1631 4.37415C17.1631 4.37415 17.5056 4.71562 17.654 4.92822C17.8853 5.23444 18.0009 5.61337 18.0009 5.99229C18.0009 6.41527 17.8711 6.80852 17.6256 7.13016Z" fill="#0478F9"/>
</svg>
