<svg width="20" height="16" viewBox="0 0 20 16" fill="none" xmlns="http://www.w3.org/2000/svg">
<path d="M18.3299 0.111084H1.67014C0.746528 0.111084 0 0.857612 0 1.77775V14C0 14.9201 0.746528 15.6666 1.67014 15.6666H18.3299C19.2535 15.6666 20 14.9201 20 14V1.77775C20 0.857612 19.2535 0.111084 18.3299 0.111084ZM1.87847 1.77775H18.1215C18.2361 1.77775 18.3299 1.8715 18.3299 1.98608V3.44442H1.67014V1.98608C1.67014 1.8715 1.76389 1.77775 1.87847 1.77775ZM18.1215 14H1.87847C1.76389 14 1.67014 13.9062 1.67014 13.7916V7.88886H18.3299V13.7916C18.3299 13.9062 18.2361 14 18.1215 14ZM6.66667 10.5278V11.9166C6.66667 12.1458 6.47917 12.3333 6.25 12.3333H3.75C3.52083 12.3333 3.33333 12.1458 3.33333 11.9166V10.5278C3.33333 10.2986 3.52083 10.1111 3.75 10.1111H6.25C6.47917 10.1111 6.66667 10.2986 6.66667 10.5278ZM13.3333 10.5278V11.9166C13.3333 12.1458 13.1458 12.3333 12.9167 12.3333H8.19444C7.96528 12.3333 7.77778 12.1458 7.77778 11.9166V10.5278C7.77778 10.2986 7.96528 10.1111 8.19444 10.1111H12.9167C13.1458 10.1111 13.3333 10.2986 13.3333 10.5278Z" fill="#9CA1AB"/>
</svg>
