<svg width="18" height="20" viewBox="0 0 18 20" fill="none" xmlns="http://www.w3.org/2000/svg">
<path fill-rule="evenodd" clip-rule="evenodd" d="M13.0433 1.53782L13.0442 2.22497C15.5693 2.42287 17.2373 4.14351 17.24 6.78219L17.25 14.5058C17.2536 17.3827 15.4462 19.1528 12.5492 19.1574L5.47256 19.1666C2.59359 19.1702 0.763582 17.358 0.759962 14.4728L0.750006 6.83991C0.746386 4.18383 2.35557 2.46777 4.88066 2.23597L4.87975 1.54881C4.87885 1.14568 5.17751 0.842416 5.57574 0.842416C5.97396 0.8415 6.27262 1.14385 6.27353 1.54698L6.27444 2.18833L11.6504 2.181L11.6495 1.53965C11.6486 1.13652 11.9473 0.83417 12.3455 0.833254C12.7347 0.832338 13.0424 1.13469 13.0433 1.53782ZM2.14469 7.12302L15.8472 7.10469V6.78402C15.8082 4.81417 14.8199 3.78069 13.046 3.62677L13.0469 4.33225C13.0469 4.72622 12.7401 5.03865 12.3509 5.03865C11.9527 5.03956 11.6531 4.72805 11.6531 4.33408L11.6522 3.59195L6.27624 3.59928L6.27715 4.34049C6.27715 4.73538 5.97939 5.04689 5.58116 5.04689C5.18294 5.04781 4.88337 4.73721 4.88337 4.34233L4.88246 3.63685C3.11762 3.81368 2.14107 4.85082 2.14378 6.83808L2.14469 7.12302ZM11.9699 11.2872V11.2973C11.979 11.7187 12.3229 12.0385 12.7401 12.0293C13.1474 12.0192 13.4723 11.6702 13.4632 11.2487C13.4442 10.8456 13.1175 10.5167 12.7111 10.5176C12.2948 10.5267 11.969 10.8657 11.9699 11.2872ZM12.7175 15.401C12.3012 15.3918 11.9654 15.0446 11.9645 14.6231C11.9554 14.2016 12.2894 13.8526 12.7057 13.8425H12.7148C13.1401 13.8425 13.485 14.1897 13.485 14.6203C13.4859 15.051 13.1419 15.4 12.7175 15.401ZM8.24111 11.3018C8.25921 11.7233 8.60403 12.0522 9.02036 12.0339C9.42763 12.0147 9.75254 11.6665 9.73444 11.245C9.72449 10.8327 9.38962 10.5121 8.98235 10.513C8.56602 10.5313 8.2402 10.8804 8.24111 11.3018ZM9.02398 15.3597C8.60766 15.3781 8.26374 15.0491 8.24473 14.6277C8.24473 14.2062 8.56965 13.8581 8.98597 13.8388C9.39324 13.8379 9.72902 14.1586 9.73807 14.57C9.75707 14.9923 9.43126 15.3405 9.02398 15.3597ZM4.51231 11.3339C4.53041 11.7554 4.87523 12.0852 5.29156 12.066C5.69883 12.0476 6.02374 11.6986 6.00474 11.2771C5.99569 10.8648 5.66082 10.5441 5.25264 10.5451C4.83632 10.5634 4.5114 10.9125 4.51231 11.3339ZM5.29516 15.3643C4.87884 15.3836 4.53492 15.0537 4.51591 14.6323C4.51501 14.2108 4.84082 13.8617 5.25715 13.8434C5.66442 13.8425 6.00019 14.1632 6.00924 14.5755C6.02825 14.9969 5.70334 15.346 5.29516 15.3643Z" fill="#9CA1AB"/>
</svg>
