<svg width="18" height="19" viewBox="0 0 18 19" fill="none" xmlns="http://www.w3.org/2000/svg">
<path d="M17.7054 6.31681L17.9924 4.70967C18.0451 4.41415 17.8179 4.14279 17.5177 4.14279H14.512L15.0995 0.852524C15.1523 0.557011 14.9251 0.285645 14.6249 0.285645H12.9923C12.8792 0.285647 12.7696 0.325461 12.6828 0.398117C12.5961 0.470772 12.5376 0.571638 12.5177 0.683051L11.8999 4.14279H7.93688L8.52441 0.852524C8.5772 0.557011 8.35 0.285645 8.04978 0.285645H6.41725C6.30407 0.285647 6.1945 0.325461 6.10773 0.398117C6.02096 0.470772 5.96251 0.571638 5.94262 0.683051L5.32479 4.14279H2.14683C2.03365 4.14279 1.92408 4.1826 1.83731 4.25526C1.75054 4.32792 1.69209 4.42878 1.6722 4.54019L1.3852 6.14734C1.33245 6.44285 1.55966 6.71422 1.85983 6.71422H4.86559L3.94723 11.8571H0.769263C0.656089 11.8571 0.546521 11.8969 0.459748 11.9695C0.372974 12.0422 0.314524 12.1431 0.294634 12.2545L0.00763836 13.8616C-0.0451161 14.1571 0.182094 14.4285 0.482268 14.4285H3.48803L2.9005 17.7188C2.84774 18.0143 3.07495 18.2856 3.37512 18.2856H5.00766C5.12084 18.2856 5.2304 18.2458 5.31718 18.1732C5.40395 18.1005 5.4624 17.9997 5.48229 17.8882L6.10016 14.4285H10.0631L9.4756 17.7188C9.4228 18.0143 9.65001 18.2856 9.95023 18.2856H11.5828C11.6959 18.2856 11.8055 18.2458 11.8923 18.1732C11.9791 18.1005 12.0375 17.9997 12.0574 17.8882L12.6752 14.4285H15.8532C15.9664 14.4285 16.0759 14.3887 16.1627 14.316C16.2495 14.2434 16.3079 14.1425 16.3278 14.0311L16.6148 12.424C16.6676 12.1284 16.4404 11.8571 16.1402 11.8571H13.1344L14.0528 6.71422H17.2307C17.3439 6.71421 17.4535 6.6744 17.5403 6.60174C17.627 6.52909 17.6855 6.42822 17.7054 6.31681ZM10.5223 11.8571H6.55936L7.47772 6.71422H11.4407L10.5223 11.8571Z" fill="#9CA1AB"/>
</svg>
