<svg width="66" height="66" viewBox="0 0 66 66" fill="none" xmlns="http://www.w3.org/2000/svg">
<path d="M65.4827 33.0031C65.4813 39.2161 63.6983 45.2984 60.3451 50.5289C56.9919 55.7594 52.2093 59.9187 46.5641 62.5136C40.9189 65.1086 34.648 66.0304 28.4949 65.1697C22.3418 64.309 16.5645 61.702 11.848 57.6577C7.13149 53.6134 3.67358 48.3015 1.88426 42.3517C0.0949284 36.4019 0.0492212 30.0638 1.75255 24.0888C3.45589 18.1139 6.83682 12.7526 11.4945 8.64073C16.1522 4.52884 21.8913 1.83877 28.0314 0.889453C29.6753 0.640372 31.3357 0.515409 32.9984 0.515625C33.3593 0.515625 33.7146 0.521813 34.0698 0.534188C42.4952 0.813021 50.4824 4.35597 56.3439 10.4146C62.2055 16.4732 65.4825 24.5731 65.4827 33.0031Z" fill="#DBE2EB"/>
<path d="M63.8906 43.0549C61.4979 50.4091 56.5599 56.6685 49.9646 60.7073C43.3693 64.7462 35.5494 66.2995 27.9112 65.088C20.273 63.8764 13.3176 59.9796 8.29574 54.0981C3.27392 48.2166 0.515194 40.7365 0.515645 33.0028C0.506885 25.1801 3.33134 17.6189 8.46658 11.7178C8.25518 12.3468 8.06955 12.9862 7.90455 13.6307C6.07009 20.7212 6.68551 28.2235 9.65096 34.9202C12.6164 41.6169 17.7578 47.115 24.2409 50.5222C30.724 53.9295 38.1682 55.046 45.3656 53.6905C52.563 52.3349 59.0911 48.587 63.8906 43.0549Z" fill="#DBE2EB"/>
<path opacity="0.5" d="M63.8913 43.0549C63.7778 43.4107 63.6592 43.7613 63.5303 44.1068V44.1119C63.4066 44.4522 63.2777 44.7925 63.1384 45.1277C63.1347 45.1476 63.1278 45.1668 63.1178 45.1844C62.9992 45.4732 62.8806 45.7619 62.7569 46.0455C62.7002 46.1796 62.6383 46.3085 62.5764 46.4374C62.4681 46.678 62.3547 46.9204 62.2361 47.1644C62.0866 47.4738 61.9319 47.778 61.772 48.0822C61.7102 48.2008 61.6483 48.3194 61.5813 48.4329C61.4678 48.6597 61.3389 48.8814 61.2152 49.1032C61.045 49.4022 60.8697 49.7013 60.6841 49.9952C60.483 50.32 60.2767 50.65 60.0602 50.9697V50.9749C55.8074 57.3702 49.4267 62.0522 42.05 64.1902C34.6734 66.3281 26.7779 65.7838 19.7644 62.6537C12.751 59.5237 7.07313 54.0103 3.7383 47.0919C0.403471 40.1734 -0.372685 32.2973 1.54755 24.8611C1.61974 24.5775 1.69708 24.299 1.77958 24.0206C1.96005 23.3864 2.16115 22.7573 2.38286 22.1386C2.43443 21.989 2.48599 21.8395 2.54271 21.6951C2.59943 21.5507 2.65615 21.3961 2.71286 21.2517C2.81083 20.9939 2.91396 20.7361 3.02224 20.4886C3.1563 20.1586 3.29552 19.8389 3.44505 19.5192C3.57396 19.2356 3.70802 18.952 3.84724 18.6736C3.96068 18.4364 4.07927 18.2095 4.19271 17.9826C4.51755 17.3587 4.86302 16.7451 5.22912 16.147C5.36833 15.915 5.51271 15.6881 5.65708 15.4612C5.8324 15.1879 6.01287 14.9198 6.19849 14.6517C6.3738 14.399 6.55427 14.1464 6.73474 13.8937C6.91521 13.6411 7.10083 13.3936 7.29162 13.1512C7.4824 12.9089 7.67318 12.6665 7.86911 12.4242C8.06505 12.1818 8.26615 11.9498 8.46724 11.7178C8.25583 12.3468 8.07021 12.9862 7.90521 13.6307C7.3223 15.8804 6.98518 18.1868 6.89974 20.5092C6.88427 20.9268 6.87396 21.3496 6.87396 21.7725C6.87346 27.8174 8.55996 33.7426 11.7437 38.8812C14.9274 44.0198 19.4821 48.168 24.8951 50.8589C26.4307 51.6268 28.0257 52.27 29.6646 52.7821C32.8031 53.7588 36.0714 54.2543 39.3583 54.2517C44.0118 54.2549 48.6115 53.2563 52.8447 51.3239C57.078 49.3914 60.8457 46.5703 63.8918 43.0523L63.8913 43.0549Z" fill="#BAC2D3"/>
<path d="M65.484 33.0026C65.494 39.3963 63.6065 45.6491 60.0607 50.9695C58.3344 51.6306 56.4921 51.1716 55.9713 48.5208C55.6531 46.8987 55.9166 45.0868 56.0141 43.446C56.1306 41.4562 56.1553 38.0469 57.1283 36.4C57.2753 36.1833 57.4574 35.9927 57.6672 35.8359C58.1376 35.4813 58.5052 35.0079 58.7324 34.4644C58.8517 34.1743 58.889 33.8572 58.8403 33.5474C58.7917 33.2376 58.659 32.9472 58.4566 32.7076C58.2503 32.5303 57.9925 32.4689 57.7894 32.273C57.2737 31.7651 57.5016 30.6632 57.9915 30.1182C58.4813 29.5731 59.1424 29.3287 59.6688 28.8327C60.1953 28.3367 60.5624 27.3513 60.1587 26.6965C59.9625 26.4212 59.6839 26.2153 59.3631 26.1087C58.3653 25.6678 57.3671 25.2269 56.3755 24.7928C55.7939 24.535 54.9674 24.419 54.7472 25.1414C54.7051 25.3823 54.6786 25.6256 54.6678 25.8699C54.6252 26.0948 54.5163 26.3018 54.3552 26.4643C54.194 26.6268 53.9878 26.7374 53.7633 26.7817C53.5388 26.8261 53.3061 26.8023 53.0952 26.7133C52.8843 26.6243 52.7049 26.4742 52.58 26.2824C51.9803 25.4868 51.919 24.2808 51.8886 23.1851C51.7618 23.3603 51.5876 23.4957 51.3865 23.5752C51.1854 23.6547 50.9657 23.6751 50.7534 23.6339C50.5411 23.5927 50.3449 23.4917 50.1881 23.3427C50.0313 23.1938 49.9204 23.0031 49.8683 22.7932C49.3723 21.2938 50.8908 19.4509 50.1741 18.0917C50.0581 17.8654 49.8745 17.6452 49.9163 17.3755C49.9895 16.8553 50.6691 17.0661 50.9878 16.7145C51.3064 16.3628 51.079 15.7106 51.0976 15.1779C51.0892 14.9149 51.1665 14.6563 51.3178 14.4411C51.4691 14.2258 51.6862 14.0655 51.9365 13.9843C52.1864 13.9668 52.4341 14.0409 52.6334 14.1927C52.8326 14.3445 52.9698 14.5637 53.0193 14.8093C53.0869 15.0542 53.0925 15.3171 53.142 15.5683C53.3194 16.5232 54.2192 17.1786 54.9539 16.8419C55.6887 16.5051 56.0435 15.2192 55.5964 14.405C55.4181 14.1844 55.3114 13.9145 55.2906 13.6316C55.3577 12.8174 56.5575 13.5089 56.9798 12.8968C55.436 11.4185 53.497 10.4192 51.3972 10.0196C51.2475 9.97672 51.087 9.99431 50.9501 10.0686C50.4603 10.4115 51.03 11.5124 50.6562 12.046C50.3577 12.1988 50.0231 12.267 49.6886 12.2432C49.3541 12.2194 49.0325 12.1045 48.7587 11.9109C48.208 11.4582 47.9997 10.3378 48.4895 9.78707C48.7097 9.54215 49.016 9.45037 49.2424 9.21163C49.7441 8.68518 49.6404 7.60752 49.1996 7.00166C48.7516 6.46531 48.152 6.0769 47.4794 5.8874C46.8488 5.64248 46.2182 5.40374 45.5876 5.16552C44.4532 4.73085 43.2431 4.28896 42.0984 4.70146C41.94 4.74565 41.803 4.84565 41.7127 4.98299C41.6292 5.18307 41.5836 5.39689 41.5781 5.6136C41.55 5.89822 41.4254 6.16467 41.225 6.36868C41.0245 6.57269 40.7603 6.70198 40.4762 6.73509C40.1925 6.69201 39.9316 6.55425 39.7361 6.34419C39.5405 6.13413 39.4218 5.86412 39.3991 5.57802C39.2825 4.7391 39.7234 3.68001 39.2093 3.13551C39.0164 2.96486 38.7687 2.86916 38.5112 2.86584C37.8501 2.78024 37.0422 2.79262 36.7173 3.5212C36.6199 3.73518 36.5626 4.01671 36.3806 4.11468C36.2259 4.1946 36.0563 4.10282 35.9037 4.01155C35.1778 3.61305 34.5889 3.00497 34.214 2.26668C33.9763 1.72092 33.9247 1.11217 34.067 0.53418C42.493 0.811962 50.4811 4.35438 56.3436 10.413C62.206 16.4716 65.4837 24.572 65.484 33.0026Z" fill="#6BB3D9"/>
<path d="M41.7744 36.3448C41.7496 36.8605 42.3988 37.0734 42.8397 37.3307C44.0885 38.0712 44.2943 40.8782 42.8515 41.0587C36.7522 41.8208 39.9924 46.0669 35.9159 47.1188C35.1672 47.3122 33.4305 48.3048 33.4063 48.8147C33.3664 49.4741 33.1265 50.1056 32.7185 50.6251C32.3104 51.1446 31.7537 51.5273 31.1226 51.7223C27.2601 52.8366 31.9858 56.6806 29.715 58.1805C27.7133 59.5031 24.7443 54.2442 24.404 52.8918C24.3125 52.6339 24.273 52.3605 24.2876 52.0873C24.3023 51.8141 24.371 51.5466 24.4896 51.3C24.7526 50.8777 25.2548 50.6509 25.5301 50.2347C26.1303 49.3226 25.3466 48.1475 24.5572 47.3942C23.7677 46.6408 23.0314 45.7225 23.1552 44.6335C23.5512 41.1427 19.9284 42.0595 20.345 37.3488C20.4853 35.7704 18.4171 35.1316 17.2477 34.0616C16.6129 33.4344 16.2412 32.5888 16.2082 31.6971C16.1753 30.8053 16.4836 29.9346 17.0703 29.2622C17.8355 28.448 19.1271 27.5359 18.5702 26.5629C18.2516 25.9993 17.4874 25.9199 16.8377 25.8771C15.1052 25.7606 12.9381 24.9402 12.9747 23.2021C12.9932 22.6447 13.2505 22.1306 13.3238 21.5799C13.397 21.0292 13.1644 20.3553 12.6199 20.2455C11.567 20.0248 10.955 22.0502 9.94486 21.6779C9.0817 21.353 9.57155 19.8216 8.83678 19.2658C8.58111 19.1298 8.28392 19.0939 8.00323 19.1652C7.72255 19.2365 7.47852 19.4099 7.31878 19.6515C7.02054 20.1494 6.79581 20.6877 6.65156 21.2499C5.88637 23.3253 3.75581 24.6721 1.54688 24.8619C3.14227 18.7184 6.49956 13.1756 11.2053 8.9161C15.9111 4.65659 21.7599 1.86633 28.0314 0.888916C28.0438 0.895104 28.05 0.906963 28.0619 0.919338C28.2054 1.15055 28.2719 1.42137 28.2516 1.69278C28.2825 2.72403 28.313 3.74342 28.3434 4.77209C28.4239 5.63719 28.3389 6.50973 28.0928 7.34299C27.9642 7.75831 27.7224 8.12955 27.3945 8.41501C27.0666 8.70047 26.6656 8.88884 26.2365 8.95896C25.2569 9.03889 24.0508 8.34692 23.4006 9.08787C22.9046 9.65093 23.2598 10.5445 23.0515 11.2669C22.7576 12.2894 21.4531 12.6261 20.3945 12.5343C19.3359 12.4425 18.2217 12.1301 17.2358 12.5281C15.6812 13.1587 15.4239 15.6734 16.8197 16.6016C17.5297 17.0728 18.5888 17.2626 18.809 18.0891C18.372 18.2551 17.9931 18.5454 17.7192 18.9242C17.4452 19.3029 17.2881 19.7536 17.2672 20.2206C17.2463 20.6876 17.3625 21.1505 17.6016 21.5522C17.8407 21.9539 18.1921 22.2769 18.6125 22.4812C19.1756 21.6243 20.4976 21.8625 21.4222 22.3219C22.3467 22.7813 23.4114 23.3748 24.3236 22.9097C25.0522 22.5364 25.4064 21.5995 26.185 21.3793C27.1028 21.1159 27.9293 21.9852 28.413 22.8056C28.8967 23.6259 29.4417 24.5994 30.3842 24.7278C31.1675 24.8258 32.0739 24.2993 32.6922 24.7892C33.5858 25.493 32.6984 27.3905 33.7389 27.8437C34.3657 27.3529 35.0905 27.0023 35.8643 26.8155C36.6382 26.6287 37.4432 26.6101 38.2248 26.7609C38.5637 26.8102 38.8837 26.9475 39.153 27.159C39.8444 27.7834 39.5876 28.9894 40.1873 29.7057C40.9221 30.5874 42.3297 30.1697 43.4502 30.4033C44.0642 30.5343 44.6118 30.879 44.9955 31.3759C45.3793 31.8728 45.5743 32.4898 45.5458 33.117C45.5173 33.7442 45.2673 34.3409 44.8401 34.801C44.4129 35.2611 43.8363 35.5548 43.213 35.6297C42.6314 35.6962 41.811 35.757 41.7744 36.3448Z" fill="#6BB3D9"/>
<path d="M63.8917 43.0547C63.7783 43.4105 63.6597 43.7611 63.5308 44.1066V44.1117C63.407 44.452 63.2781 44.7923 63.1389 45.1275C63.1352 45.1474 63.1282 45.1666 63.1183 45.1842C62.9997 45.473 62.8811 45.7617 62.7573 46.0453C62.7006 46.1794 62.6387 46.3083 62.5769 46.4372C62.4686 46.6778 62.3552 46.9202 62.2366 47.1642C62.087 47.4736 61.9323 47.7778 61.7725 48.082C61.7106 48.2006 61.6487 48.3192 61.5817 48.4327C61.4683 48.6595 61.3394 48.8813 61.2156 49.103C61.0455 49.402 60.8702 49.7011 60.6845 49.995C60.4834 50.3198 60.2772 50.6498 60.0606 50.9695C58.5756 51.5419 57.003 51.2841 56.2656 49.5103C59.1254 47.7646 61.6979 45.587 63.8917 43.0547Z" fill="#4FA4D1"/>
<path d="M7.86844 12.4266C8.06437 12.1894 8.26547 11.9522 8.46656 11.7202C8.25516 12.3493 8.06953 12.9887 7.90453 13.6332C7.32163 15.8829 6.9845 18.1892 6.89906 20.5116C6.81656 20.7591 6.73922 21.0118 6.65156 21.2541C5.88328 23.3269 3.75375 24.6727 1.54688 24.8635C1.61906 24.5799 1.69641 24.3015 1.77891 24.023C1.95937 23.3888 2.16047 22.7597 2.38219 22.141C2.43375 21.9915 2.48531 21.8419 2.54203 21.6976C2.59875 21.5532 2.65547 21.3985 2.71219 21.2541C2.81016 20.9963 2.91328 20.7385 3.02156 20.491C3.15563 20.161 3.29484 19.8413 3.44437 19.5216C3.57328 19.238 3.70734 18.9544 3.84656 18.676C3.96 18.4388 4.07859 18.2119 4.19203 17.9851C4.51687 17.3612 4.86234 16.7476 5.22844 16.1494C5.36766 15.9174 5.51203 15.6905 5.65641 15.4637C5.83172 15.1904 6.01219 14.9222 6.19781 14.6541C6.37313 14.4015 6.55359 14.1488 6.73406 13.8962C6.91453 13.6435 7.10016 13.396 7.29094 13.1537C7.48172 12.9113 7.6725 12.6664 7.86844 12.4266Z" fill="#4FA4D1"/>
<path d="M29.7157 58.1805C27.7151 59.5005 24.7451 54.2463 24.4048 52.8902C24.2373 52.5475 24.1945 52.1571 24.284 51.7862C24.3734 51.4154 24.5893 51.0874 24.8946 50.8586C26.4303 51.6266 28.0253 52.2698 29.6641 52.7819C28.9835 54.3984 31.4946 57.0049 29.7157 58.1805Z" fill="#4FA4D1"/>
<path d="M62.3486 4.7998H43.7634C43.0906 4.7998 42.4454 5.06708 41.9696 5.54284C41.4938 6.01859 41.2266 6.66386 41.2266 7.33668V17.3563C41.2266 18.0291 41.4938 18.6744 41.9696 19.1501C42.4454 19.6259 43.0906 19.8932 43.7634 19.8932H45.2273V24.3322L49.3007 19.8932H62.346C63.0189 19.8932 63.6641 19.6259 64.1399 19.1501C64.6156 18.6744 64.8829 18.0291 64.8829 17.3563V7.33668C64.8829 6.66431 64.616 6.01943 64.1408 5.54375C63.6656 5.06807 63.021 4.80049 62.3486 4.7998Z" fill="#EF5361"/>
<path d="M47.263 10.7251C46.9724 10.725 46.6882 10.8111 46.4464 10.9725C46.2047 11.1339 46.0163 11.3634 45.905 11.6319C45.7937 11.9004 45.7645 12.1959 45.8211 12.481C45.8778 12.7661 46.0177 13.028 46.2232 13.2336C46.4287 13.4391 46.6905 13.5791 46.9756 13.6359C47.2607 13.6926 47.5562 13.6636 47.8247 13.5523C48.0933 13.4411 48.3228 13.2528 48.4843 13.0111C48.6458 12.7694 48.732 12.4853 48.732 12.1946C48.732 11.805 48.5773 11.4313 48.3018 11.1557C48.0263 10.8801 47.6527 10.7252 47.263 10.7251Z" fill="white"/>
<path d="M53.056 10.7251C52.7653 10.725 52.4811 10.8111 52.2394 10.9725C51.9977 11.1339 51.8093 11.3634 51.6979 11.6319C51.5866 11.9004 51.5575 12.1959 51.6141 12.481C51.6708 12.7661 51.8107 13.028 52.0162 13.2336C52.2217 13.4391 52.4835 13.5791 52.7686 13.6359C53.0537 13.6926 53.3492 13.6636 53.6177 13.5523C53.8863 13.4411 54.1158 13.2528 54.2773 13.0111C54.4388 12.7694 54.525 12.4853 54.525 12.1946C54.525 11.805 54.3702 11.4313 54.0948 11.1557C53.8193 10.8801 53.4456 10.7252 53.056 10.7251Z" fill="white"/>
<path d="M58.845 10.7251C58.5544 10.725 58.2702 10.8111 58.0285 10.9725C57.7867 11.1339 57.5983 11.3634 57.487 11.6319C57.3757 11.9004 57.3465 12.1959 57.4032 12.481C57.4598 12.7661 57.5997 13.028 57.8052 13.2336C58.0107 13.4391 58.2726 13.5791 58.5576 13.6359C58.8427 13.6926 59.1382 13.6636 59.4068 13.5523C59.6753 13.4411 59.9049 13.2528 60.0664 13.0111C60.2279 12.7694 60.3141 12.4853 60.3141 12.1946C60.3141 12.0017 60.2762 11.8106 60.2024 11.6323C60.1286 11.454 60.0204 11.292 59.884 11.1555C59.7476 11.0191 59.5856 10.9108 59.4073 10.837C59.2291 10.7631 59.038 10.7251 58.845 10.7251Z" fill="white"/>
<path d="M10.5767 32.6721H29.1619C29.8348 32.6721 30.48 32.9394 30.9558 33.4152C31.4315 33.8909 31.6988 34.5362 31.6988 35.209V45.2286C31.6988 45.9015 31.4316 46.5468 30.9558 47.0226C30.4801 47.4985 29.8348 47.7659 29.1619 47.766H27.6986V52.205L23.6252 47.766H10.5798C9.90698 47.7659 9.26171 47.4985 8.78597 47.0226C8.31023 46.5468 8.04297 45.9015 8.04297 45.2286V35.209C8.04297 34.5367 8.30982 33.8919 8.78491 33.4162C9.26 32.9406 9.90446 32.6729 10.5767 32.6721Z" fill="#FFC943"/>
<path d="M13.4818 38.6389C13.1911 38.6388 12.9069 38.7249 12.6651 38.8864C12.4234 39.0478 12.235 39.2773 12.1237 39.5458C12.0124 39.8144 11.9832 40.1099 12.0399 40.395C12.0966 40.6801 12.2366 40.942 12.4421 41.1476C12.6477 41.3531 12.9096 41.4931 13.1947 41.5498C13.4798 41.6064 13.7753 41.5773 14.0439 41.466C14.3124 41.3547 14.5419 41.1663 14.7033 40.9245C14.8648 40.6828 14.9509 40.3986 14.9508 40.1079C14.9506 39.7184 14.7958 39.3448 14.5204 39.0693C14.2449 38.7939 13.8713 38.6391 13.4818 38.6389Z" fill="white"/>
<path d="M19.2708 38.6389C18.9801 38.6388 18.6959 38.7249 18.4542 38.8864C18.2125 39.0478 18.024 39.2773 17.9127 39.5458C17.8015 39.8144 17.7723 40.1099 17.829 40.395C17.8857 40.6801 18.0257 40.942 18.2312 41.1476C18.4367 41.3531 18.6986 41.4931 18.9838 41.5498C19.2689 41.6064 19.5644 41.5773 19.8329 41.466C20.1015 41.3547 20.331 41.1663 20.4924 40.9245C20.6538 40.6828 20.74 40.3986 20.7398 40.1079C20.7398 39.7183 20.5851 39.3447 20.3096 39.0692C20.0341 38.7937 19.6604 38.6389 19.2708 38.6389Z" fill="white"/>
<path d="M25.0677 38.6389C24.777 38.6388 24.4928 38.7249 24.2511 38.8864C24.0093 39.0478 23.8209 39.2773 23.7096 39.5458C23.5983 39.8144 23.5692 40.1099 23.6259 40.395C23.6826 40.6801 23.8225 40.942 24.0281 41.1476C24.2336 41.3531 24.4955 41.4931 24.7806 41.5498C25.0657 41.6064 25.3613 41.5773 25.6298 41.466C25.8983 41.3547 26.1278 41.1663 26.2893 40.9245C26.4507 40.6828 26.5368 40.3986 26.5367 40.1079C26.5366 39.7184 26.3818 39.3448 26.1063 39.0693C25.8308 38.7939 25.4573 38.6391 25.0677 38.6389Z" fill="white"/>
</svg>
