<svg width="50" height="66" viewBox="0 0 50 66" fill="none" xmlns="http://www.w3.org/2000/svg">
<path d="M48.375 24.75H44.25V19.25C44.25 8.63543 35.6147 0 25 0C14.3853 0 5.75004 8.63543 5.75004 19.25V24.75H1.62504C0.865012 24.75 0.25 25.365 0.25 26.125V60.5001C0.25 63.5334 2.71662 66 5.75004 66H44.2501C47.2834 66 49.75 63.5334 49.75 60.5V26.125C49.75 25.365 49.135 24.75 48.375 24.75ZM29.117 53.4733C29.1599 53.8613 29.0352 54.2507 28.7746 54.5422C28.5141 54.8335 28.1408 55 27.7501 55H22.25C21.8593 55 21.486 54.8335 21.2255 54.5422C20.965 54.2508 20.8401 53.8614 20.8831 53.4733L21.7505 45.6732C20.342 44.6486 19.5001 43.0279 19.5001 41.25C19.5001 38.2167 21.9667 35.75 25.0001 35.75C28.0336 35.75 30.5002 38.2166 30.5002 41.25C30.5002 43.0279 29.6583 44.6486 28.2497 45.6732L29.117 53.4733ZM36 24.75H14V19.25C14 13.1847 18.9347 8.25 25 8.25C31.0653 8.25 36 13.1847 36 19.25V24.75Z" fill="#00CFC8"/>
</svg>
