<svg width="57" height="66" viewBox="0 0 57 66" fill="none" xmlns="http://www.w3.org/2000/svg">
<path d="M53.2626 44.0744C51.4887 48.8822 48.8058 53.0625 45.2876 56.4982C41.2829 60.4087 36.039 63.516 29.7015 65.7326C29.4935 65.8051 29.2765 65.8646 29.0585 65.9084C28.7704 65.9653 28.4774 65.996 28.1868 66H28.1299C27.8202 66 27.5091 65.9688 27.2004 65.9084C26.9824 65.8646 26.7684 65.8051 26.5614 65.7341C20.2163 63.5211 14.9659 60.4152 10.9572 56.5047C7.43743 53.0691 4.75507 48.8912 2.98361 44.0834C-0.237537 35.342 -0.054248 25.7122 0.0932893 17.9738L0.095807 17.855C0.125516 17.216 0.14465 16.5448 0.155225 15.8036C0.209104 12.1645 3.10245 9.15383 6.74204 8.9509C14.3304 8.52742 20.2007 6.05252 25.2164 1.16365L25.2602 1.12336C26.0931 0.359492 27.1425 -0.0151415 28.1868 0.000468304C29.1939 0.0135604 30.197 0.387691 31.0001 1.12336L31.0429 1.16365C36.0597 6.05252 41.93 8.52742 49.5183 8.9509C53.1579 9.15383 56.0512 12.1645 56.1051 15.8036C56.1157 16.5498 56.1348 17.22 56.1645 17.855L56.1661 17.9054C56.3131 25.6584 56.4954 35.3072 53.2626 44.0744Z" fill="#26A6FE"/>
<path d="M53.2633 44.0741C51.4893 48.8819 48.8065 53.0623 45.2882 56.498C41.2836 60.4085 36.0397 63.5158 29.7022 65.7324C29.4942 65.8049 29.2772 65.8643 29.0591 65.9081C28.7711 65.965 28.478 65.9958 28.1875 65.9998V0.000244141C29.1946 0.0133362 30.1976 0.387467 31.0008 1.12314L31.0436 1.16342C36.0604 6.0523 41.9306 8.5272 49.519 8.95068C53.1586 9.1536 56.0519 12.1643 56.1058 15.8034C56.1164 16.5496 56.1355 17.2198 56.1652 17.8548L56.1667 17.9051C56.3138 25.6581 56.4961 35.307 53.2633 44.0741Z" fill="#0593FC"/>
<path d="M44.5775 32.9999C44.5775 42.0501 37.2293 49.4169 28.1868 49.4491H28.1288C19.0596 49.4491 11.6797 42.0697 11.6797 32.9999C11.6797 23.9307 19.0596 16.5513 28.1288 16.5513H28.1868C37.2293 16.5835 44.5775 23.9503 44.5775 32.9999Z" fill="white"/>
<path d="M44.5783 32.9999C44.5783 42.0501 37.2301 49.4169 28.1875 49.4491V16.5513C37.2301 16.5835 44.5783 23.9503 44.5783 32.9999Z" fill="#E1EBF0"/>
<path d="M35.5935 30.6313L28.1854 38.0404L26.5846 39.6412C26.2065 40.0193 25.7105 40.2081 25.215 40.2081C24.719 40.2081 24.2235 40.0193 23.8449 39.6412L20.4032 36.1979C19.6469 35.4416 19.6469 34.2165 20.4032 33.4597C21.1585 32.7034 22.3851 32.7034 23.1414 33.4597L25.215 35.5333L32.8552 27.8931C33.6115 27.1362 34.8382 27.1362 35.5935 27.8931C36.3498 28.6494 36.3498 29.876 35.5935 30.6313Z" fill="#B4D2D7"/>
<path d="M35.5956 30.6313L28.1875 38.0404V32.5624L32.8573 27.8931C33.6136 27.1362 34.8403 27.1362 35.5956 27.8931C36.3519 28.6494 36.3519 29.876 35.5956 30.6313Z" fill="#6FA5AA"/>
</svg>
