<svg width="42" height="42" viewBox="0 0 42 42" fill="none" xmlns="http://www.w3.org/2000/svg">
<g clip-path="url(#clip0)">
<path d="M37.9093 37.9095C37.6632 38.1555 37.3433 38.2785 37.0481 38.2785C36.7282 38.2785 36.4083 38.1555 36.1622 37.9095L32.6928 34.4154C32.2007 33.9479 32.2007 33.1605 32.6928 32.693C33.1603 32.201 33.9476 32.201 34.4152 32.693L37.9093 36.1625C38.3768 36.6546 38.3768 37.4173 37.9093 37.9095Z" fill="#D3D3D8"/>
<path d="M37.9093 37.9094C37.6632 38.1554 37.3433 38.2784 37.0481 38.2784C36.7282 38.2784 36.4083 38.1554 36.1622 37.9094L32.6928 34.4153C32.2007 33.9478 32.2007 33.1604 32.6928 32.6929L37.9093 37.9094Z" fill="#BABAC0"/>
<path d="M32.1514 16.1577C32.1514 19.4794 31.1427 22.5551 29.4202 25.1142L16.0757 22.9735L14.8454 22.7766L11.9829 7.22583L16.0757 2.78038L18.5937 0.196777C26.2707 1.37785 32.1514 8.16085 32.1514 16.1577Z" fill="#76E2F8"/>
<path d="M9.84231 13.6973L7.38173 7.81616L0.662715 11.6205C0.237282 13.0601 0 14.5805 0 16.1578C0 22.0229 3.1666 27.136 7.87385 29.9198L12.3029 27.9513L13.6152 20.3581L9.84231 13.6973Z" fill="#76E2F8"/>
<path d="M32.1517 16.1577C32.1517 19.4794 31.1429 22.5551 29.4204 25.1142L16.0759 22.9735V2.78038L18.5939 0.196777C26.2709 1.37785 32.1517 8.16085 32.1517 16.1577Z" fill="#25D9F8"/>
<path d="M29.4202 25.1143C28.9527 25.8032 28.4113 26.4429 27.8454 27.0581C24.9173 30.1831 20.6769 32.1515 16.0756 32.1515C14.0333 32.1515 12.0075 31.7579 10.2113 31.0689C9.39927 30.749 8.61189 30.3554 7.87372 29.9125L11.9424 25.8437C12.1731 25.613 12.3027 25.3001 12.3027 24.9738V19.6428C12.3027 19.3177 12.174 19.0057 11.9447 18.7752L7.75061 14.5583C7.50463 14.337 7.3816 14.0171 7.3816 13.6972V10.277L0.664307 11.6303C0.93497 10.6708 1.30406 9.76045 1.74696 8.89909C4.30588 3.9042 9.50598 0.270663 15.4359 0.0246058C15.6574 0.0246058 15.8541 0 16.0756 0C16.9123 0 17.8062 0.0738993 18.5936 0.196928L22.1123 5.5445C22.3092 5.83993 22.3584 6.29096 22.2599 6.63544C22.1862 6.97992 21.94 7.25058 21.6201 7.42282L17.0681 9.68647L16.0756 11.5073L14.8454 13.9925V17.8556L16.0756 18.4707L29.4202 25.1143Z" fill="#ECECF1"/>
<path d="M17.0684 9.68647L16.0759 11.5073V0C16.9126 0 17.8065 0.0738993 18.5939 0.196928L22.1125 5.5445C22.3095 5.83993 22.3587 6.29096 22.2602 6.63544C22.1864 6.97992 21.9403 7.25058 21.6204 7.42282L17.0684 9.68647Z" fill="#D3D3D8"/>
<path d="M29.4205 25.1143C28.9529 25.8031 28.4115 26.4429 27.8457 27.058C24.9176 30.1831 20.6772 32.1515 16.0759 32.1515V18.4707L29.4205 25.1143Z" fill="#D3D3D8"/>
<path d="M41.2803 41.2803C40.3207 42.2399 38.7459 42.2399 37.7862 41.2803L35.178 38.6721C34.7105 38.18 34.7105 37.3925 35.178 36.925L36.0639 36.0639L36.925 35.178C37.3925 34.7105 38.1799 34.7105 38.6721 35.178L41.2803 37.7862C42.2398 38.7459 42.2398 40.3206 41.2803 41.2803Z" fill="#7C8388"/>
<path d="M41.2803 41.2802C40.3207 42.2397 38.7459 42.2397 37.7862 41.2802L35.178 38.6719C34.7105 38.1798 34.7105 37.3924 35.178 36.9248L36.0639 36.0637L41.2803 41.2802Z" fill="#575F64"/>
<path d="M34.2921 22.1369C30.9211 18.7659 25.4832 18.7659 22.1369 22.1369C18.7659 25.5079 18.7659 30.9458 22.1369 34.2921C25.5079 37.6631 30.9458 37.6631 34.2921 34.2921C37.6631 30.9211 37.6631 25.4832 34.2921 22.1369Z" fill="#7C8388"/>
<path d="M22.1369 22.1372L34.2922 34.2925C30.9458 37.6635 25.5079 37.6635 22.1369 34.2925C18.7659 30.9461 18.7659 25.5082 22.1369 22.1372Z" fill="#575F64"/>
<path d="M32.5696 32.5696C30.1583 34.9564 26.2705 34.9564 23.8592 32.5696C21.4724 30.1583 21.4724 26.2705 23.8592 23.8592C26.2705 21.4724 30.1583 21.4724 32.5696 23.8592C34.9564 26.2706 34.9564 30.1583 32.5696 32.5696Z" fill="#ECECF1"/>
<path d="M32.5696 32.5697C30.1583 34.9566 26.2705 34.9566 23.8592 32.5697C21.4724 30.1585 21.4724 26.2707 23.8592 23.8594L32.5696 32.5697Z" fill="#D3D3D8"/>
</g>
<defs>
<clipPath id="clip0">
<rect width="42" height="42" fill="white"/>
</clipPath>
</defs>
</svg>
