<svg width="66" height="66" viewBox="0 0 66 66" fill="none" xmlns="http://www.w3.org/2000/svg">
<path d="M63.5188 4.85303H2.48119C1.11087 4.85303 0 5.96389 0 7.33421V58.6657C0 60.036 1.11087 61.1469 2.48119 61.1469H63.5188C64.8891 61.1469 66 60.036 66 58.6657V7.33421C66 5.96389 64.8891 4.85303 63.5188 4.85303Z" fill="#D9E2E9"/>
<path d="M66 7.33332V58.6669C65.9995 59.3252 65.7377 59.9564 65.2722 60.4218C64.8067 60.8873 64.1756 61.1491 63.5173 61.1496H2.48273C1.82444 61.1491 1.19326 60.8873 0.727779 60.4218C0.262295 59.9564 0.000546189 59.3252 0 58.6669L0 57.8934H60.0337C60.6911 57.8922 61.3211 57.63 61.7852 57.1644C62.2493 56.6989 62.5095 56.0681 62.5087 55.4107V4.85059H63.5147C64.1734 4.85045 64.8053 5.1119 65.2713 5.57745C65.7374 6.04301 65.9995 6.67458 66 7.33332Z" fill="#C1CDD3"/>
<path d="M63.5188 4.85303H2.48119C2.15538 4.85296 1.83275 4.91707 1.53172 5.04171C1.23069 5.16634 0.957161 5.34906 0.726754 5.57942C0.496348 5.80978 0.313577 6.08327 0.188879 6.38427C0.0641815 6.68527 -7.03823e-09 7.00789 0 7.3337L0 19.0451H66V7.3337C66 7.00789 65.9358 6.68527 65.8111 6.38427C65.6864 6.08327 65.5037 5.80978 65.2732 5.57942C65.0428 5.34906 64.7693 5.16634 64.4683 5.04171C64.1673 4.91707 63.8446 4.85296 63.5188 4.85303Z" fill="#EF5361"/>
<path d="M66.0004 7.33332V19.0457H62.4911V7.33332C62.4905 6.67494 62.2287 6.04368 61.7631 5.57818C61.2975 5.11268 60.6662 4.851 60.0078 4.85059H63.5177C64.176 4.85113 64.8071 5.11288 65.2726 5.57837C65.7381 6.04385 65.9999 6.67503 66.0004 7.33332Z" fill="#DA2A47"/>
<path d="M49.4103 24.0151H16.5918C15.4732 24.0151 14.5664 24.9219 14.5664 26.0405V46.3819C14.5664 47.5005 15.4732 48.4073 16.5918 48.4073H49.4103C50.5289 48.4073 51.4357 47.5005 51.4357 46.3819V26.0405C51.4357 24.9219 50.5289 24.0151 49.4103 24.0151Z" fill="#43567C"/>
<path d="M28.1641 41.4183V31.0047C28.1641 30.7846 28.2218 30.5682 28.3314 30.3773C28.4409 30.1864 28.5986 30.0274 28.7887 29.9164C28.9788 29.8053 29.1946 29.7459 29.4148 29.7442C29.6349 29.7424 29.8517 29.7984 30.0435 29.9064L39.2918 35.1142C39.4866 35.2239 39.6488 35.3835 39.7616 35.5765C39.8745 35.7696 39.9339 35.9892 39.9339 36.2128C39.9339 36.4364 39.8745 36.656 39.7616 36.849C39.6488 37.0421 39.4866 37.2016 39.2918 37.3113L30.044 42.5191C29.852 42.6274 29.635 42.6835 29.4145 42.6817C29.1941 42.6799 28.978 42.6203 28.7877 42.5089C28.5975 42.3975 28.4398 42.2382 28.3304 42.0468C28.2209 41.8554 28.1636 41.6387 28.1641 41.4183Z" fill="#DBE2EB"/>
<path d="M49.5573 54.2526H16.4418C16.3029 54.2526 16.1697 54.1974 16.0714 54.0991C15.9732 54.0009 15.918 53.8676 15.918 53.7287C15.918 53.5898 15.9732 53.4565 16.0714 53.3583C16.1697 53.26 16.3029 53.2048 16.4418 53.2048H49.5573C49.6963 53.2048 49.8295 53.26 49.9278 53.3583C50.026 53.4565 50.0812 53.5898 50.0812 53.7287C50.0812 53.8676 50.026 54.0009 49.9278 54.0991C49.8295 54.1974 49.6963 54.2526 49.5573 54.2526Z" fill="#2F3A5A"/>
<path d="M25.1992 52.1543H28.741V55.3027H25.1992V52.1543Z" fill="#707583"/>
<path d="M28.7415 55.8268H25.1997C25.0607 55.8268 24.9275 55.7716 24.8292 55.6733C24.731 55.5751 24.6758 55.4418 24.6758 55.3029V52.1545C24.6758 52.0857 24.6893 52.0176 24.7157 51.954C24.742 51.8905 24.7806 51.8327 24.8292 51.7841C24.8779 51.7354 24.9356 51.6968 24.9992 51.6705C25.0627 51.6442 25.1309 51.6306 25.1997 51.6306H28.7415C28.8103 51.6306 28.8784 51.6442 28.9419 51.6705C29.0054 51.6968 29.0631 51.7354 29.1117 51.7841C29.1603 51.8327 29.1989 51.8905 29.2252 51.954C29.2514 52.0176 29.2649 52.0857 29.2648 52.1545V55.3029C29.2649 55.3717 29.2514 55.4398 29.2252 55.5033C29.1989 55.5669 29.1603 55.6246 29.1117 55.6733C29.0631 55.722 29.0054 55.7605 28.9419 55.7869C28.8784 55.8132 28.8103 55.8268 28.7415 55.8268ZM25.723 54.779H28.2176V52.6784H25.723V54.779Z" fill="#2F3A5A"/>
<path d="M57.7145 14.3678C58.9268 14.3678 59.9096 13.3851 59.9096 12.1728C59.9096 10.9605 58.9268 9.97778 57.7145 9.97778C56.5023 9.97778 55.5195 10.9605 55.5195 12.1728C55.5195 13.3851 56.5023 14.3678 57.7145 14.3678Z" fill="#DBE2EB"/>
<path d="M49.8513 14.3678C51.0635 14.3678 52.0463 13.3851 52.0463 12.1728C52.0463 10.9605 51.0635 9.97778 49.8513 9.97778C48.639 9.97778 47.6562 10.9605 47.6562 12.1728C47.6562 13.3851 48.639 14.3678 49.8513 14.3678Z" fill="#DBE2EB"/>
<path d="M41.9802 14.3678C43.1924 14.3678 44.1752 13.3851 44.1752 12.1728C44.1752 10.9605 43.1924 9.97778 41.9802 9.97778C40.7679 9.97778 39.7852 10.9605 39.7852 12.1728C39.7852 13.3851 40.7679 14.3678 41.9802 14.3678Z" fill="#DBE2EB"/>
</svg>
