<svg width="66" height="66" viewBox="0 0 66 66" fill="none" xmlns="http://www.w3.org/2000/svg">
<path d="M45.9742 25.7053C56.7508 25.7053 65.4876 31.9088 65.4876 39.5617C65.4876 44.4988 61.8483 48.8301 56.3734 51.2839L58.2224 58.331L51.924 52.7622C49.9714 53.2017 47.9758 53.4218 45.9742 53.4186C35.1977 53.4186 26.4609 47.2151 26.4609 39.5627C26.4609 31.9103 35.1972 25.7053 45.9742 25.7053Z" fill="#DBE2EB"/>
<path d="M26.457 39.564C26.457 47.2143 35.1953 53.4162 45.9683 53.4162C47.9713 53.419 49.9684 53.1987 51.9227 52.7593L58.2206 58.3281L57.5234 55.6798L52.9241 50.5396C50.971 50.979 48.9751 51.1999 46.9732 51.198C36.1967 51.198 27.4573 44.9961 27.4573 37.3401C27.4567 36.2895 27.622 35.2453 27.9472 34.2463C26.9809 35.8524 26.4661 37.6896 26.457 39.564Z" fill="#BAC2D3"/>
<path d="M29.3674 7.66895C13.4331 7.66895 0.515625 16.8414 0.515625 28.1563C0.515625 35.4565 5.89669 41.86 13.992 45.489L11.1045 55.6834L20.5714 47.6701C23.4584 48.321 26.409 48.6476 29.3685 48.6436C45.3013 48.6436 58.2203 39.4711 58.2203 28.1563C58.2203 16.8414 45.3018 7.66895 29.3674 7.66895Z" fill="#EF5361"/>
<path d="M58.2204 28.1593C58.2204 39.471 45.3009 48.6414 29.3722 48.6414C26.4105 48.6455 23.4575 48.3197 20.5679 47.67L11.1016 55.6818L12.1844 51.8698L19.087 44.3906C21.9742 45.0395 24.9245 45.3651 27.8836 45.3615C43.82 45.3615 56.7395 36.1912 56.7395 24.8716C56.7413 23.3174 56.4977 21.7727 56.0177 20.2944C57.4465 22.6699 58.2076 25.3872 58.2204 28.1593Z" fill="#DA2A47"/>
<path d="M17.314 30.2305C19.0989 30.2305 20.5459 28.7835 20.5459 26.9985C20.5459 25.2136 19.0989 23.7666 17.314 23.7666C15.529 23.7666 14.082 25.2136 14.082 26.9985C14.082 28.7835 15.529 30.2305 17.314 30.2305Z" fill="#DBE2EB"/>
<path d="M28.4976 30.2305C30.2825 30.2305 31.7295 28.7835 31.7295 26.9985C31.7295 25.2136 30.2825 23.7666 28.4976 23.7666C26.7126 23.7666 25.2656 25.2136 25.2656 26.9985C25.2656 28.7835 26.7126 30.2305 28.4976 30.2305Z" fill="#DBE2EB"/>
<path d="M39.6851 30.2305C41.47 30.2305 42.917 28.7835 42.917 26.9985C42.917 25.2136 41.47 23.7666 39.6851 23.7666C37.9001 23.7666 36.4531 25.2136 36.4531 26.9985C36.4531 28.7835 37.9001 30.2305 39.6851 30.2305Z" fill="#DBE2EB"/>
</svg>
