<svg width="20" height="18" viewBox="0 0 20 18" fill="none" xmlns="http://www.w3.org/2000/svg">
<path fill-rule="evenodd" clip-rule="evenodd" d="M14.5261 0.75C15.7554 0.75 16.9379 1.23583 17.8078 2.10758C18.6786 2.9775 19.1654 4.15083 19.1654 5.37917V12.6208C19.1654 15.1783 17.0845 17.25 14.5261 17.25H5.47036C2.91195 17.25 0.832031 15.1783 0.832031 12.6208V5.37917C0.832031 2.82167 2.90278 0.75 5.47036 0.75H14.5261ZM15.9845 6.745L16.0579 6.67167C16.277 6.40584 16.277 6.02084 16.0478 5.755C15.9204 5.61842 15.7453 5.535 15.5629 5.51667C15.3704 5.50659 15.187 5.57167 15.0486 5.7L10.9154 9C10.3837 9.44092 9.62195 9.44092 9.08204 9L4.95704 5.7C4.67195 5.48917 4.27779 5.51667 4.04037 5.76417C3.79287 6.01167 3.76537 6.40584 3.97529 6.68084L4.09537 6.8L8.2662 10.0542C8.77954 10.4575 9.40195 10.6775 10.0537 10.6775C10.7036 10.6775 11.337 10.4575 11.8495 10.0542L15.9845 6.745Z" fill="#9CA1AB"/>
</svg>
