<svg width="90" height="90" viewBox="0 0 90 90" fill="none" xmlns="http://www.w3.org/2000/svg">
<path d="M45 90C69.8528 90 90 69.8528 90 45C90 20.1472 69.8528 0 45 0C20.1472 0 0 20.1472 0 45C0 69.8528 20.1472 90 45 90Z" fill="#8AC9FE"/>
<path d="M90 45C90 69.852 69.852 90 45 90C20.148 90 0 69.852 0 45C0 36.8754 2.15332 29.2553 5.92031 22.6758C13.6758 36.2232 28.2727 45.3516 45 45.3516C61.7273 45.3516 76.326 36.2232 84.0797 22.6758C87.8467 29.2553 90 36.8754 90 45Z" fill="#26A6FE"/>
<path d="M84.5965 66.3926V66.3943C76.987 80.4516 62.1071 90 45.0001 90C27.893 90 13.0131 80.4516 5.40356 66.3943V66.3926H84.5965Z" fill="#0593FC"/>
<path d="M75.0112 43.1085V78.5302C74.7089 78.8009 74.403 79.0681 74.0919 79.33C74.0075 79.402 73.9231 79.4741 73.8388 79.5444C73.7667 79.606 73.6929 79.6657 73.619 79.7272C73.5241 79.8063 73.4274 79.8854 73.3308 79.9628C72.9546 80.2686 72.5731 80.5675 72.1882 80.8593C72.0933 80.9331 71.9966 81.0069 71.8999 81.0772C71.8138 81.1423 71.7276 81.2056 71.6397 81.2706C71.5009 81.3726 71.362 81.4728 71.2231 81.5729C71.0632 81.689 70.9015 81.8032 70.738 81.9157C70.3935 82.1583 70.0437 82.3938 69.6921 82.6259C69.5884 82.6944 69.4847 82.763 69.3792 82.8298C69.2245 82.93 69.0681 83.0302 68.9116 83.1269C68.7446 83.2323 68.5776 83.336 68.4089 83.4397C68.1733 83.5839 67.9343 83.7263 67.6935 83.8669C67.5089 83.9741 67.3243 84.0813 67.138 84.1868C67.1204 84.1974 67.1011 84.2079 67.0835 84.2167C66.9183 84.3116 66.753 84.403 66.586 84.4927C66.354 84.621 66.1202 84.7458 65.8864 84.8688C65.6772 84.9778 65.4681 85.0868 65.2571 85.1923C65.1833 85.231 65.1077 85.2679 65.0321 85.3048C64.8177 85.412 64.6032 85.5175 64.387 85.6212C64.1989 85.7108 64.0108 85.7987 63.8228 85.8849C63.7173 85.9341 63.6118 85.9815 63.5063 86.029C63.2901 86.1274 63.0722 86.2241 62.8542 86.319C62.7241 86.3753 62.594 86.4298 62.464 86.4843C62.3339 86.5388 62.2038 86.5933 62.0737 86.646C61.2915 86.9677 60.4987 87.2665 59.6954 87.5442H30.3048C28.1655 86.8042 26.0983 85.9095 24.1173 84.8688C20.4558 82.9493 17.0913 80.5376 14.1118 77.7251V43.1085C14.1118 41.8692 15.1173 40.8638 16.3565 40.8638H72.7647C74.004 40.8638 75.0112 41.8692 75.0112 43.1085Z" fill="#D0F6FF"/>
<path d="M75.0111 43.1085V78.5302C70.6025 82.48 65.41 85.572 59.6953 87.5442H45V40.8638H72.7646C74.0039 40.8638 75.0111 41.8692 75.0111 43.1085Z" fill="#8FC9F7"/>
<path d="M70.4031 48.0235V80.3858C70.4031 81.3366 69.6318 82.1078 68.6824 82.1078H20.4397C19.4889 82.1078 18.719 81.3365 18.719 80.3858V48.0235C18.719 47.0727 19.4889 46.3027 20.4397 46.3027H68.6825C69.6319 46.3027 70.4031 47.0727 70.4031 48.0235Z" fill="#474F6F"/>
<path d="M70.4032 48.0235V80.3858C70.4032 81.3366 69.6319 82.1078 68.6825 82.1078H45.0239V46.3027H68.6827C69.6321 46.3027 70.4032 47.0727 70.4032 48.0235Z" fill="#323B5A"/>
<path d="M65.8863 84.8689C63.9053 85.9095 61.8381 86.8042 59.6953 87.5443C55.0898 89.1351 50.1469 90 45 90C39.8531 90 34.9102 89.1351 30.3047 87.5443C28.1654 86.8042 26.0982 85.9095 24.1172 84.8689H65.8863Z" fill="#8FC9F7"/>
<path d="M65.8863 84.8689C63.9053 85.9095 61.8381 86.8042 59.6953 87.5443C55.0898 89.1351 50.1469 90 45 90V84.8689H65.8863Z" fill="#0F9BE8"/>
<path d="M55.0008 84.8682C55.0008 86.2231 53.9021 87.3217 52.5472 87.3217H37.4531C36.0981 87.3217 34.9995 86.2231 34.9995 84.8682H55.0008Z" fill="#0F9BE8"/>
<path d="M55.0007 84.8682C55.0007 86.2231 53.9021 87.3217 52.5472 87.3217H44.9988V84.8682H55.0007Z" fill="#0066E8"/>
<path d="M39.6838 57.8V73.1992H34.5874V57.8H39.6838Z" fill="white"/>
<path d="M49.108 57.8003H41.8816V73.1987H46.9775V69.2015H49.108C53.1052 69.2015 55.4132 67.0481 55.4132 63.3146C55.4132 59.7989 53.1052 57.8003 49.108 57.8003ZM48.8443 65.3343H46.9775V61.6657H48.8443C49.9429 61.6657 50.5792 62.3249 50.5792 63.4675C50.5792 64.654 49.9429 65.3343 48.8443 65.3343Z" fill="white"/>
<path d="M51.8767 24.3527C50.836 26.1105 49.7884 27.8613 48.7565 29.6226C47.7229 31.384 46.7052 33.1523 45.7278 34.9453C45.5731 35.2265 45.3007 35.3689 45.0229 35.3742C45.0159 35.376 45.0071 35.376 45.0001 35.376C44.7153 35.376 44.4306 35.2336 44.2724 34.9453C42.3159 31.3611 40.203 27.8666 38.1235 24.3527C36.2602 21.2045 36.7454 17.0525 39.5772 14.4281C41.1013 13.0148 43.063 12.3099 45.0229 12.3152C46.9671 12.3205 48.9095 13.0254 50.4229 14.4281C53.2548 17.0525 53.7399 21.2045 51.8767 24.3527Z" fill="#ECECEC"/>
<path d="M51.8767 24.3527C50.836 26.1105 49.7884 27.8613 48.7565 29.6226C47.7229 31.3839 46.7052 33.1523 45.7278 34.9453C45.5731 35.2265 45.3007 35.3689 45.0229 35.3742V12.3152C46.9671 12.3205 48.9095 13.0253 50.423 14.4281C53.2548 17.0525 53.7399 21.2044 51.8767 24.3527Z" fill="white"/>
<path d="M49.1081 57.8003H45.0229V73.1987H46.9776V69.2015H49.1081C53.1054 69.2015 55.4134 67.0481 55.4134 63.3146C55.4134 59.7989 53.1054 57.8003 49.1081 57.8003ZM48.8444 65.3343H46.9776V61.6657H48.8444C49.9431 61.6657 50.5794 62.3249 50.5794 63.4675C50.5794 64.654 49.9431 65.3343 48.8444 65.3343Z" fill="#D0F6FF"/>
<path d="M45.0234 24.2652C47.0247 24.2652 48.6471 22.643 48.6471 20.642C48.6471 18.641 47.0247 17.0188 45.0234 17.0188C43.0221 17.0188 41.3997 18.641 41.3997 20.642C41.3997 22.643 43.0221 24.2652 45.0234 24.2652Z" fill="#0F9BE8"/>
<path d="M48.6475 20.642C48.6475 22.6429 47.0252 24.2652 45.0232 24.2652V17.0188C47.0252 17.0188 48.6475 18.6411 48.6475 20.642Z" fill="#0066E8"/>
</svg>
