<svg width="90" height="90" viewBox="0 0 90 90" fill="none" xmlns="http://www.w3.org/2000/svg">
<g clip-path="url(#clip0)">
<path d="M37.1743 80.217H64.5654V90.0002H37.1743V80.217Z" fill="#A4B0C0"/>
<path d="M90.0004 21.5214V76.3043C89.9939 78.4624 88.2457 80.2107 86.0869 80.2171H15.6521C13.494 80.2107 11.7457 78.4624 11.7393 76.3043V17.6086H86.0869C88.2457 17.6151 89.9939 19.3634 90.0004 21.5214ZM76.3045 70.4347V27.391H25.4352V70.4347H76.3045Z" fill="#D0D7DF"/>
<path d="M76.3044 46.9566V70.4348H25.4351V27.3911H76.3044V46.9566Z" fill="#49AAEE"/>
<path d="M56.7387 29.3479C56.7387 44.4753 44.4751 56.7389 29.3476 56.7389C14.2202 56.7389 1.95654 44.4753 1.95654 29.3479C1.95654 14.2204 14.2202 1.95679 29.3476 1.95679C44.4751 1.95679 56.7387 14.2204 56.7387 29.3479Z" fill="#FED049"/>
<path d="M29.3478 0C13.1392 0 0 13.1392 0 29.3478C0 45.5565 13.1392 58.6957 29.3478 58.6957C45.5565 58.6957 58.6957 45.5565 58.6957 29.3478C58.677 13.1471 45.5486 0.0186289 29.3478 0ZM29.3478 54.7828C26.6086 54.7828 23.6918 51.1008 21.7601 44.9998H36.9356C35.0039 51.1008 32.087 54.7828 29.3478 54.7828ZM20.7391 41.087C20.0749 37.8656 19.6966 34.5919 19.6084 31.3046H39.0915C39.0027 34.5919 38.6243 37.8656 37.9602 41.087H20.7391ZM4.01311 31.3046H15.6949C15.7723 34.5876 16.1126 37.8584 16.7145 41.087H6.80675C5.22042 38.0497 4.27034 34.7209 4.01311 31.3046ZM29.3478 3.9128C32.087 3.9128 35.0039 7.5949 36.9356 13.6959H21.7601C23.6918 7.5949 26.6086 3.9128 29.3478 3.9128ZM37.9566 17.6087C38.6208 20.8301 38.9991 24.1038 39.0872 27.3911H19.6063C19.6944 24.1038 20.0735 20.8301 20.7369 17.6087H37.9566ZM15.6949 27.3911H4.01311C4.27034 23.9748 5.22042 20.6459 6.80675 17.6087H16.7145C16.1126 20.8372 15.7723 24.1081 15.6949 27.3911ZM43.0007 31.3046H54.6825C54.4253 34.7209 53.4752 38.0497 51.8889 41.087H41.9812C42.583 37.8584 42.9233 34.5876 43.0007 31.3046ZM43.0007 27.3911C42.9233 24.1081 42.583 20.8372 41.9812 17.6087H51.8889C53.4752 20.6459 54.4253 23.9748 54.6825 27.3911H43.0007ZM49.3532 13.6959H41.0418C40.2508 10.6923 38.9969 7.83063 37.3246 5.21397C42.0807 6.79743 46.2651 9.74726 49.3532 13.6959ZM21.3753 5.21397C19.7016 7.83063 18.4456 10.6923 17.6538 13.6959H9.34244C12.4306 9.74726 16.6135 6.79743 21.3689 5.21397H21.3753ZM9.34244 44.9998H17.6538C18.4449 48.0033 19.6987 50.865 21.371 53.4817C16.6149 51.8982 12.4306 48.9484 9.34244 44.9998ZM37.3203 53.4817C38.9941 50.865 40.2501 48.0033 41.0418 44.9998H49.3532C46.2651 48.9484 42.0822 51.8982 37.3268 53.4817H37.3203Z" fill="#F6B445"/>
<path d="M82.1739 66.7958L76.578 72.3916L66.7956 62.6085L62.6084 66.7958V52.8262H76.578L72.3915 57.0134L82.1739 66.7958Z" fill="#F1F2F2"/>
<path d="M29.3477 86.0867H72.3914V90.0002H29.3477V86.0867Z" fill="#D0D7DF"/>
<path d="M76.3043 25.4351H62.6084V29.3479H74.3475V35.2174H60.6523V39.1302H74.3475V46.9566H78.261V27.3911C78.261 26.3106 77.3848 25.4351 76.3043 25.4351Z" fill="#768BA0"/>
<path d="M27.3908 62.6084H23.478V70.4347C23.478 71.5152 24.3543 72.3915 25.4348 72.3915H56.7387V68.478H27.3908V62.6084Z" fill="#768BA0"/>
</g>
<defs>
<clipPath id="clip0">
<rect width="90" height="90" fill="white"/>
</clipPath>
</defs>
</svg>
