<svg width="90" height="90" viewBox="0 0 90 90" fill="none" xmlns="http://www.w3.org/2000/svg">
<g clip-path="url(#clip0)">
<path d="M79.4491 60.1014C77.03 66.6575 73.3715 72.358 68.5739 77.043C63.1131 82.3755 55.9623 86.6128 47.3202 89.6354C47.0366 89.7343 46.7407 89.8153 46.4433 89.875C46.0506 89.9526 45.651 89.9945 45.2548 90H45.1772C44.7549 90 44.3305 89.9574 43.9096 89.875C43.6123 89.8153 43.3205 89.7343 43.0383 89.6375C34.3858 86.6196 27.2262 82.3844 21.7598 77.0519C16.9601 72.3669 13.3024 66.6698 10.8867 60.1137C6.49427 48.1936 6.74421 35.0622 6.94539 24.5098L6.94883 24.3477C6.98934 23.4764 7.01543 22.5611 7.02985 21.5503C7.10332 16.5879 11.0488 12.4825 16.0119 12.2058C26.3596 11.6283 34.3646 8.25344 41.2042 1.58679L41.264 1.53186C42.3997 0.490217 43.8307 -0.0206475 45.2548 0.000638597C46.6281 0.0184914 47.9959 0.528669 49.0911 1.53186L49.1494 1.58679C55.9905 8.25344 63.9954 11.6283 74.3431 12.2058C79.3062 12.4825 83.2517 16.5879 83.3252 21.5503C83.3396 22.5679 83.3657 23.4819 83.4062 24.3477L83.4083 24.4164C83.6088 34.9887 83.8573 48.1462 79.4491 60.1014Z" fill="#26A6FE"/>
<path d="M79.4487 60.1012C77.0296 66.6573 73.3712 72.3579 68.5736 77.0429C63.1127 82.3754 55.962 86.6127 47.3198 89.6353C47.0362 89.7341 46.7403 89.8152 46.443 89.8749C46.0502 89.9525 45.6506 89.9944 45.2544 89.9999V0.000488281C46.6277 0.0183411 47.9955 0.528519 49.0907 1.53171L49.1491 1.58664C55.9901 8.25329 63.995 11.6282 74.3428 12.2056C79.3059 12.4823 83.2513 16.5878 83.3248 21.5502C83.3392 22.5678 83.3653 23.4817 83.4058 24.3476L83.4079 24.4163C83.6084 34.9885 83.857 48.1461 79.4487 60.1012Z" fill="#0593FC"/>
<path d="M67.6058 45.0001C67.6058 57.3412 57.5855 67.3868 45.2548 67.4307H45.1758C32.8086 67.4307 22.7451 57.3679 22.7451 45.0001C22.7451 32.6329 32.8086 22.5701 45.1758 22.5701H45.2548C57.5855 22.614 67.6058 32.6596 67.6058 45.0001Z" fill="white"/>
<path d="M67.6054 45.0001C67.6054 57.3412 57.5852 67.3868 45.2544 67.4307V22.5701C57.5852 22.614 67.6054 32.6596 67.6054 45.0001Z" fill="#E1EBF0"/>
<path d="M55.3567 41.77L45.2548 51.8733L43.0719 54.0561C42.5562 54.5718 41.8799 54.8293 41.2042 54.8293C40.5279 54.8293 39.8522 54.5718 39.3359 54.0561L34.6426 49.3608C33.6113 48.3295 33.6113 46.6589 34.6426 45.6269C35.6726 44.5955 37.3453 44.5955 38.3766 45.6269L41.2042 48.4545L51.6227 38.036C52.654 37.004 54.3267 37.004 55.3567 38.036C56.388 39.0673 56.388 40.74 55.3567 41.77Z" fill="#B4D2D7"/>
<path d="M55.3563 41.77L45.2544 51.8733V44.4033L51.6223 38.036C52.6537 37.004 54.3263 37.004 55.3563 38.036C56.3876 39.0673 56.3876 40.74 55.3563 41.77Z" fill="#6FA5AA"/>
</g>
<defs>
<clipPath id="clip0">
<rect width="90" height="90" fill="white"/>
</clipPath>
</defs>
</svg>
