<svg width="90" height="90" viewBox="0 0 90 90" fill="none" xmlns="http://www.w3.org/2000/svg">
<g clip-path="url(#clip0)">
<path d="M75.2435 77.3438H52.6664C52.0239 77.3438 51.425 77.6616 51.065 78.1938L45.688 86.1411C45.5309 86.3733 45.2802 86.5063 45 86.5063C44.7198 86.5063 44.469 86.3733 44.312 86.1411L38.935 78.1938C38.5749 77.6616 37.9761 77.3438 37.3337 77.3438H14.7565L14.6841 77.5195C22.4666 85.2339 33.1763 90 45 90C56.8238 90 67.5334 85.2339 75.3159 77.5195L75.2435 77.3438Z" fill="#8AC9FE"/>
<path d="M51.3772 4.33811C49.2961 4.02908 47.167 3.86719 45 3.86719C21.215 3.86719 1.93359 23.1486 1.93359 46.9336C1.93359 56.8257 5.27098 65.9371 10.8782 73.2081L11.054 73.1482V23.9539H43.7284C43.5247 22.8041 43.418 21.6214 43.418 20.4142C43.418 13.8684 46.5425 8.03971 51.3772 4.33811Z" fill="#8AC9FE"/>
<path d="M82.9435 26.5476C82.0997 29.1947 80.726 31.6076 78.946 33.6595V73.1483L79.1218 73.2082C84.7291 65.9372 88.0665 56.8258 88.0665 46.9337C88.0665 39.5581 86.2109 32.6165 82.9435 26.5476Z" fill="#8AC9FE"/>
<path d="M43.4179 20.4142C43.4179 17.6092 43.992 14.9358 45.0281 12.5049H12.8912C11.7794 12.5049 10.8782 13.4061 10.8782 14.5179V23.7781L11.9884 23.9539H43.7282C43.5246 22.8043 43.4179 21.6214 43.4179 20.4142Z" fill="#26A6FE"/>
<path d="M23.7696 12.5049H12.8912C11.7794 12.5049 10.8782 13.4061 10.8782 14.5179V23.7781H21.7564V14.5179C21.7566 13.4063 22.6578 12.5049 23.7696 12.5049Z" fill="#0593FC"/>
<path d="M63.6561 40.6526C53.6427 40.6526 45.306 33.3422 43.6992 23.7783H10.8782V73.2084C12.051 74.729 13.3221 76.1699 14.684 77.5197H37.3334C37.9168 77.5197 38.4623 77.8093 38.7892 78.2925L44.166 86.2397C44.5652 86.8298 45.4341 86.8298 45.8333 86.2397L51.2101 78.2925C51.5371 77.8093 52.0825 77.5197 52.6659 77.5197H75.3153C76.6771 76.1699 77.9484 74.7292 79.1212 73.2084V33.4524C75.4062 37.8526 69.8524 40.6526 63.6561 40.6526Z" fill="#EAF6FF"/>
<path d="M21.7566 23.7783H10.8782V73.2084C12.051 74.729 13.3221 76.1699 14.684 77.5197H21.7564V23.7783H21.7566Z" fill="#D8ECFE"/>
<path d="M17.1028 19.3923C17.8309 19.3923 18.4211 18.8021 18.4211 18.074C18.4211 17.3459 17.8309 16.7556 17.1028 16.7556C16.3747 16.7556 15.7844 17.3459 15.7844 18.074C15.7844 18.8021 16.3747 19.3923 17.1028 19.3923Z" fill="#FE646F"/>
<path d="M21.8489 19.3923C22.577 19.3923 23.1672 18.8021 23.1672 18.074C23.1672 17.3459 22.577 16.7556 21.8489 16.7556C21.1208 16.7556 20.5305 17.3459 20.5305 18.074C20.5305 18.8021 21.1208 19.3923 21.8489 19.3923Z" fill="#FED402"/>
<path d="M26.595 19.3923C27.3231 19.3923 27.9133 18.8021 27.9133 18.074C27.9133 17.3459 27.3231 16.7556 26.595 16.7556C25.8669 16.7556 25.2766 17.3459 25.2766 18.074C25.2766 18.8021 25.8669 19.3923 26.595 19.3923Z" fill="#8BC727"/>
<path d="M40.9571 34.3972H19.564C18.8357 34.3972 18.2456 33.8069 18.2456 33.0789C18.2456 32.3508 18.8357 31.7605 19.564 31.7605H40.9571C41.6853 31.7605 42.2754 32.3508 42.2754 33.0789C42.2754 33.8069 41.6853 34.3972 40.9571 34.3972Z" fill="#8AC9FE"/>
<path d="M40.9571 42.0347H19.564C18.8357 42.0347 18.2456 41.4444 18.2456 40.7163C18.2456 39.9882 18.8357 39.3979 19.564 39.3979H40.9571C41.6853 39.3979 42.2754 39.9882 42.2754 40.7163C42.2754 41.4444 41.6853 42.0347 40.9571 42.0347Z" fill="#8AC9FE"/>
<path d="M65.7624 49.6719H19.564C18.8357 49.6719 18.2456 49.0816 18.2456 48.3535C18.2456 47.6254 18.8357 47.0352 19.564 47.0352H65.7624C66.4907 47.0352 67.0808 47.6254 67.0808 48.3535C67.0808 49.0816 66.4907 49.6719 65.7624 49.6719Z" fill="#8AC9FE"/>
<path d="M65.7624 57.3093H19.564C18.8357 57.3093 18.2456 56.7191 18.2456 55.991C18.2456 55.2629 18.8357 54.6726 19.564 54.6726H65.7624C66.4907 54.6726 67.0808 55.2629 67.0808 55.991C67.0808 56.7191 66.4907 57.3093 65.7624 57.3093Z" fill="#8AC9FE"/>
<path d="M65.7624 64.9465H19.564C18.8357 64.9465 18.2456 64.3563 18.2456 63.6282C18.2456 62.9001 18.8357 62.3098 19.564 62.3098H65.7624C66.4907 62.3098 67.0808 62.9001 67.0808 63.6282C67.0808 64.3563 66.4907 64.9465 65.7624 64.9465Z" fill="#8AC9FE"/>
<path d="M63.6562 40.828C74.9305 40.828 84.0702 31.6883 84.0702 20.414C84.0702 9.13966 74.9305 0 63.6562 0C52.3818 0 43.2422 9.13966 43.2422 20.414C43.2422 31.6883 52.3818 40.828 63.6562 40.828Z" fill="#FE646F"/>
<path d="M50.9766 20.414C50.9766 10.462 58.0985 2.17477 67.5234 0.367383C66.2709 0.127266 64.9786 0 63.6562 0C52.3819 0 43.2422 9.13975 43.2422 20.414C43.2422 31.6883 52.3819 40.828 63.6562 40.828C64.9786 40.828 66.2709 40.7007 67.5234 40.4606C58.0985 38.6532 50.9766 30.366 50.9766 20.414Z" fill="#FD4755"/>
<path d="M58.6108 16.9826V13.7259C58.6108 10.9438 60.8742 8.68042 63.6563 8.68042C66.4382 8.68042 68.7016 10.9438 68.7016 13.7259V16.9826H71.3383V13.7259C71.3383 9.48989 67.8921 6.0437 63.6561 6.0437C59.4201 6.0437 55.9741 9.48989 55.9741 13.7259V16.9826H58.6108Z" fill="white"/>
<path d="M72.6029 32.2816H54.7094C54.1151 32.2816 53.6333 31.7998 53.6333 31.2055V17.883C53.6333 17.2887 54.1151 16.8069 54.7094 16.8069H72.6029C73.1972 16.8069 73.679 17.2887 73.679 17.883V31.2055C73.6792 31.7998 73.1972 32.2816 72.6029 32.2816Z" fill="#FED402"/>
<path d="M60.9961 31.2055V17.883C60.9961 17.2887 61.4779 16.8069 62.0722 16.8069H54.7094C54.1151 16.8069 53.6333 17.2887 53.6333 17.883V31.2055C53.6333 31.7998 54.1151 32.2816 54.7094 32.2816H62.0722C61.4779 32.2816 60.9961 31.7998 60.9961 31.2055Z" fill="#FAC600"/>
</g>
<defs>
<clipPath id="clip0">
<rect width="90" height="90" fill="white"/>
</clipPath>
</defs>
</svg>
