<svg width="90" height="90" viewBox="0 0 90 90" fill="none" xmlns="http://www.w3.org/2000/svg">
<path d="M90 45C90 45.4546 89.9928 45.9072 89.9801 46.3581C89.6396 57.8552 84.9858 68.2678 77.583 76.0382C76.9583 76.6937 76.3154 77.3293 75.6526 77.9469C69.9483 83.2546 62.8641 87.1008 54.996 88.8845C51.7816 89.6143 48.4353 90 45 90C41.5647 90 38.2184 89.6143 35.004 88.8845C27.1359 87.1008 20.0517 83.2546 14.3474 77.9469C13.6847 77.3293 13.0417 76.6937 12.417 76.0382C5.01434 68.2678 0.360352 57.8554 0.0198633 46.3581C0.00720703 45.9072 0 45.4546 0 45C0 44.5454 0.00720703 44.0928 0.0198633 43.6419C0.360352 32.1446 5.01434 21.7322 12.4172 13.9618C13.0419 13.3063 13.6847 12.6707 14.3476 12.0531C20.0519 6.74543 27.1361 2.89916 35.0042 1.11551C38.2184 0.385664 41.5647 0 45 0C48.4353 0 51.7816 0.385664 54.996 1.11551C62.8641 2.89916 69.9483 6.74543 75.6526 12.0531C76.3153 12.6707 76.9583 13.3063 77.583 13.9618C84.9858 21.7322 89.6398 32.1446 89.9801 43.6419C89.9928 44.0928 90 44.5454 90 45Z" fill="#B1E4F9"/>
<path d="M54.6356 88.9661C51.5317 89.6432 48.3066 90 45 90C20.1459 90 0 69.8523 0 45C0 20.1477 20.1459 0 45 0C48.3066 0 51.5317 0.35666 54.6356 1.03395C34.4118 5.44535 19.2693 23.4543 19.2693 45C19.2693 66.5457 34.4118 84.5548 54.6356 88.9661Z" fill="#90D8F9"/>
<path d="M89.9801 46.3581C89.9928 45.9072 90 45.4544 90 45C90 44.5454 89.9928 44.0928 89.9801 43.6419H75.7397C75.5756 34.9569 73.8401 26.6736 70.7389 19.5553C73.1672 17.9279 75.4595 16.0606 77.583 13.9618C76.9583 13.3063 76.3154 12.6707 75.6526 12.0531C73.7594 13.9208 71.7233 15.5927 69.5718 17.064C68.7621 15.4485 67.8792 13.9018 66.9224 12.4371C63.5252 7.23814 59.4562 3.40453 54.996 1.11551C51.7816 0.385664 48.4353 0 45 0C41.5647 0 38.2184 0.385664 35.004 1.11551C30.5439 3.40453 26.4748 7.23797 23.0776 12.4371C22.1207 13.9018 21.2379 15.4487 20.4282 17.064C18.2767 15.5927 16.2406 13.9208 14.3474 12.0531C13.6847 12.6707 13.0417 13.3063 12.417 13.9618C14.5404 16.0606 16.8328 17.9279 19.2611 19.5553C16.1597 26.6736 14.4243 34.9567 14.2603 43.6419H0.0198633C0.00720703 44.0928 0 44.5454 0 45C0 45.4546 0.00720703 45.9072 0.0198633 46.3581H14.2603C14.4244 55.0431 16.1599 63.3264 19.2611 70.4447C16.8328 72.0723 14.5404 73.9394 12.417 76.0382C13.0417 76.6937 13.6846 77.3293 14.3474 77.9469C16.2406 76.0792 18.2767 74.4073 20.4282 72.936C21.2379 74.5515 22.1208 76.0982 23.0776 77.563C26.4748 82.7619 30.5438 86.5956 35.004 88.8845C38.2184 89.6143 41.5647 90 45 90C48.4353 90 51.7816 89.6143 54.996 88.8845C59.4562 86.5956 63.5252 82.762 66.9224 77.563C67.8793 76.0983 68.7621 74.5515 69.5718 72.936C71.7233 74.4073 73.7594 76.0792 75.6526 77.9469C76.3153 77.3293 76.9583 76.6937 77.583 76.0382C75.4595 73.9394 73.1672 72.0723 70.7389 70.4447C73.8403 63.3264 75.5757 55.0433 75.7397 46.3581H89.9801ZM73.0227 43.6419H46.3581V27.3245C54.2241 27.0991 61.7643 24.9191 68.4119 21.0164C71.184 27.5495 72.858 35.3048 73.0227 43.6419ZM67.2768 18.5328C60.9836 22.2801 53.8274 24.3789 46.3581 24.6064V1.41064C54.8743 2.04592 62.406 8.62488 67.2768 18.5328ZM43.6419 1.41064V24.6064C36.1726 24.3789 29.0164 22.2801 22.7232 18.5328C27.594 8.62488 35.1257 2.04592 43.6419 1.41064ZM21.5879 21.0164C28.2356 24.9189 35.7757 27.0991 43.6417 27.3245V43.6419H16.9773C17.142 35.3048 18.816 27.5495 21.5879 21.0164ZM16.9773 46.3581H43.6417V62.6755C35.7757 62.9009 28.2356 65.0809 21.5879 68.9836C18.816 62.4505 17.142 54.6952 16.9773 46.3581ZM22.7232 71.4672C29.0164 67.7199 36.1726 65.6211 43.6419 65.3936V88.5894C35.1257 87.9541 27.594 81.3751 22.7232 71.4672ZM46.3581 88.5894V65.3936C53.8274 65.6211 60.9836 67.7199 67.2768 71.4672C62.406 81.3751 54.8743 87.9541 46.3581 88.5894ZM68.4121 68.9836C61.7644 65.0811 54.2243 62.9009 46.3583 62.6755V46.3581H73.0227C72.858 54.6952 71.184 62.4505 68.4121 68.9836Z" fill="#75CEF9"/>
<path d="M71.3274 58.0941C53.7758 58.7844 36.2242 58.7844 18.6726 58.0941C15.936 57.9866 13.6356 55.9809 13.1801 53.2804C12.2492 47.7601 12.2492 42.2399 13.1801 36.7197C13.6356 34.0191 15.936 32.0135 18.6726 31.9059C36.2242 31.2156 53.7758 31.2156 71.3274 31.9059C74.0639 32.0135 76.3644 34.0191 76.8198 36.7197C77.7507 42.2399 77.7507 47.7601 76.8198 53.2804C76.3645 55.9809 74.0641 57.9866 71.3274 58.0941Z" fill="#F4DD45"/>
<path d="M45 59.9675C36.1858 59.9675 27.3716 59.7954 18.6193 59.451C15.2504 59.3185 12.3996 56.8184 11.841 53.5061C10.8893 47.8618 10.8893 42.1378 11.841 36.4937C12.3996 33.1812 15.2504 30.6811 18.6193 30.5487C36.1243 29.8604 53.8759 29.8604 71.3809 30.5487C74.7497 30.6813 77.6005 33.1814 78.1592 36.4937C79.1109 42.138 79.1109 47.8618 78.1592 53.5059C77.6005 56.8184 74.7497 59.3185 71.3809 59.451C62.6284 59.7954 53.8142 59.9675 45 59.9675ZM45 32.7486C36.2215 32.7486 27.4431 32.92 18.726 33.263C16.6345 33.3452 14.8653 34.8941 14.5192 36.9456C13.6179 42.29 13.6179 47.7099 14.5192 53.0545C14.8653 55.1061 16.6343 56.6547 18.726 56.737C36.1601 57.4225 53.8398 57.4225 71.274 56.737C73.3654 56.6547 75.1347 55.1059 75.4808 53.0544C76.382 47.7099 76.382 42.29 75.4808 36.9456C75.1347 34.8941 73.3656 33.3452 71.274 33.263C62.5568 32.92 53.7785 32.7486 45 32.7486Z" fill="#ECC32E"/>
<path d="M66.1812 37.5846C66.174 36.8389 65.5674 36.2395 64.8235 36.2395C64.8189 36.2395 64.8145 36.2395 64.8101 36.2397C64.0599 36.2469 63.4579 36.8609 63.4651 37.6108L63.5681 48.2394L55.7054 36.8535C55.3675 36.3643 54.7514 36.1521 54.1835 36.3286C53.6162 36.5056 53.2295 37.0309 53.2295 37.6252V52.4019C53.2295 53.1519 53.8375 53.76 54.5876 53.76C55.3378 53.76 55.9457 53.1519 55.9457 52.4019V41.9819L63.4616 52.8652C63.8804 53.4699 64.5709 53.7294 65.2208 53.5264C65.8884 53.3177 66.3196 52.6805 66.3196 51.89L66.1812 37.5846Z" fill="#544F57"/>
<path d="M35.9933 36.3361C35.282 36.0995 34.5126 36.485 34.2762 37.1969L30.3936 48.8839L26.3214 37.1524C26.0757 36.4437 25.301 36.0689 24.5931 36.3146C23.8846 36.5606 23.5094 37.3345 23.7554 38.0431L28.8203 52.6347C29.0599 53.3094 29.6998 53.7602 30.4148 53.7602H30.4266C31.1464 53.7551 31.7854 53.2939 32.0197 52.6038L36.8535 38.0531C37.0905 37.3414 36.705 36.5725 35.9933 36.3361Z" fill="#544F57"/>
<path d="M45.3765 36.2395H41.2543C40.8934 36.2395 40.5473 36.3831 40.2924 36.6389C40.0375 36.8945 39.8949 37.2411 39.896 37.602V52.4021C39.896 53.1521 40.504 53.7601 41.2541 53.7601C42.0041 53.7601 42.6122 53.1521 42.6122 52.4021V47.3223C43.5479 47.3172 44.7448 47.3116 45.3762 47.3116C48.4738 47.3116 50.9939 44.8282 50.9939 41.7757C50.9939 38.7233 48.4741 36.2395 45.3765 36.2395ZM45.3765 44.5953C44.7481 44.5953 43.5505 44.6009 42.6166 44.6058V38.9559H45.3765C46.9494 38.9559 48.278 40.2471 48.278 41.7756C48.278 43.304 46.9494 44.5953 45.3765 44.5953Z" fill="#544F57"/>
</svg>
