<svg width="90" height="90" viewBox="0 0 90 90" fill="none" xmlns="http://www.w3.org/2000/svg">
<path d="M81.5625 9.84375H46.4062V82.9688H81.5625C82.6814 82.9688 83.7544 82.5243 84.5456 81.7331C85.3368 80.9419 85.7812 79.8689 85.7812 78.75V14.0625C85.7812 12.9436 85.3368 11.8706 84.5456 11.0794C83.7544 10.2882 82.6814 9.84375 81.5625 9.84375Z" fill="#78B9C1"/>
<path d="M75.9375 77.3438C77.0564 77.3438 78.1294 76.8993 78.9206 76.1081C79.7118 75.3169 80.1562 74.2439 80.1562 73.125V18.2812L66.0938 4.21875H26.7188C25.5999 4.21875 24.5268 4.66322 23.7356 5.45439C22.9445 6.24556 22.5 7.31862 22.5 8.4375V73.125C22.5 74.2439 22.9445 75.3169 23.7356 76.1081C24.5268 76.8993 25.5999 77.3438 26.7188 77.3438H75.9375Z" fill="#85CCD5"/>
<path d="M70.3125 18.2812H80.1562L66.0938 4.21875V14.0625C66.0937 15.1814 66.5382 16.2544 67.3294 17.0456C68.1206 17.8368 69.1936 18.2812 70.3125 18.2812Z" fill="#ADD7DB"/>
<path d="M28.125 8.4375H30.9375V11.25H28.125V8.4375Z" fill="#78B9C1"/>
<path d="M33.75 8.4375H36.5625V11.25H33.75V8.4375Z" fill="#78B9C1"/>
<path d="M39.375 8.4375H42.1875V11.25H39.375V8.4375Z" fill="#78B9C1"/>
<path d="M43.5938 57.6562H7.03125C5.47795 57.6562 4.21875 58.9154 4.21875 60.4688V82.9688C4.21875 84.5221 5.47795 85.7812 7.03125 85.7812H43.5938C45.1471 85.7812 46.4062 84.5221 46.4062 82.9688V60.4688C46.4062 58.9154 45.1471 57.6562 43.5938 57.6562Z" fill="#D65246"/>
<path d="M9.84375 47.8125V52.0312H16.875V47.8125C16.875 45.5747 17.7639 43.4286 19.3463 41.8463C20.9286 40.2639 23.0747 39.375 25.3125 39.375C27.5503 39.375 29.6964 40.2639 31.2787 41.8463C32.8611 43.4286 33.75 45.5747 33.75 47.8125V57.6562H40.7812V47.8125C40.7812 43.7099 39.1515 39.7754 36.2506 36.8744C33.3496 33.9735 29.4151 32.3438 25.3125 32.3438C21.2099 32.3438 17.2754 33.9735 14.3744 36.8744C11.4735 39.7754 9.84375 43.7099 9.84375 47.8125Z" fill="#DFDFDD"/>
<path d="M28.125 70.3126C28.1255 69.8188 27.9959 69.3336 27.7493 68.9057C27.5027 68.4779 27.1479 68.1225 26.7204 67.8753C26.2929 67.6281 25.8079 67.4978 25.3141 67.4976C24.8203 67.4973 24.3351 67.627 23.9073 67.8737C23.4796 68.1204 23.1243 68.4754 22.8773 68.903C22.6302 69.3306 22.5001 69.8156 22.5 70.3094C22.4999 70.8032 22.6298 71.2884 22.8766 71.716C23.1235 72.1437 23.4786 72.4989 23.9063 72.7458V77.3438H26.7188V72.7458C27.1462 72.4994 27.5012 72.1448 27.748 71.7177C27.9949 71.2905 28.1249 70.8059 28.125 70.3126Z" fill="#B93F33"/>
<path d="M32.3438 26.7188C31.2253 26.7175 30.1529 26.2726 29.362 25.4817C28.5711 24.6908 28.1263 23.6185 28.125 22.5V19.6875C28.125 18.5686 28.5695 17.4956 29.3606 16.7044C30.1518 15.9132 31.2249 15.4688 32.3438 15.4688C33.4626 15.4688 34.5357 15.9132 35.3269 16.7044C36.118 17.4956 36.5625 18.5686 36.5625 19.6875V22.5C36.5612 23.6185 36.1164 24.6908 35.3255 25.4817C34.5346 26.2726 33.4622 26.7175 32.3438 26.7188ZM32.3438 18.2812C31.9709 18.2817 31.6135 18.43 31.3498 18.6936C31.0862 18.9572 30.9379 19.3147 30.9375 19.6875V22.5C30.9375 22.873 31.0857 23.2306 31.3494 23.4944C31.6131 23.7581 31.9708 23.9062 32.3438 23.9062C32.7167 23.9062 33.0744 23.7581 33.3381 23.4944C33.6018 23.2306 33.75 22.873 33.75 22.5V19.6875C33.7496 19.3147 33.6013 18.9572 33.3377 18.6936C33.074 18.43 32.7166 18.2817 32.3438 18.2812Z" fill="#78B9C1"/>
<path d="M39.375 15.4688H42.1875V26.7188H39.375V15.4688Z" fill="#78B9C1"/>
<path d="M49.2188 26.7188C48.1003 26.7175 47.0279 26.2726 46.237 25.4817C45.4461 24.6908 45.0013 23.6185 45 22.5V19.6875C45 18.5686 45.4445 17.4956 46.2356 16.7044C47.0268 15.9132 48.0999 15.4688 49.2188 15.4688C50.3376 15.4688 51.4107 15.9132 52.2019 16.7044C52.993 17.4956 53.4375 18.5686 53.4375 19.6875V22.5C53.4362 23.6185 52.9914 24.6908 52.2005 25.4817C51.4096 26.2726 50.3372 26.7175 49.2188 26.7188ZM49.2188 18.2812C48.8459 18.2817 48.4885 18.43 48.2248 18.6936C47.9612 18.9572 47.8129 19.3147 47.8125 19.6875V22.5C47.8125 22.873 47.9607 23.2306 48.2244 23.4944C48.4881 23.7581 48.8458 23.9062 49.2188 23.9062C49.5917 23.9062 49.9494 23.7581 50.2131 23.4944C50.4768 23.2306 50.625 22.873 50.625 22.5V19.6875C50.6246 19.3147 50.4763 18.9572 50.2127 18.6936C49.949 18.43 49.5916 18.2817 49.2188 18.2812Z" fill="#78B9C1"/>
<path d="M60.4688 26.7188C59.3503 26.7175 58.2779 26.2726 57.487 25.4817C56.6961 24.6908 56.2513 23.6185 56.25 22.5V19.6875C56.25 18.5686 56.6945 17.4956 57.4856 16.7044C58.2768 15.9132 59.3499 15.4688 60.4688 15.4688C61.5876 15.4688 62.6607 15.9132 63.4519 16.7044C64.243 17.4956 64.6875 18.5686 64.6875 19.6875V22.5C64.6862 23.6185 64.2414 24.6908 63.4505 25.4817C62.6596 26.2726 61.5872 26.7175 60.4688 26.7188ZM60.4688 18.2812C60.0959 18.2817 59.7385 18.43 59.4748 18.6936C59.2112 18.9572 59.0629 19.3147 59.0625 19.6875V22.5C59.0625 22.873 59.2107 23.2306 59.4744 23.4944C59.7381 23.7581 60.0958 23.9062 60.4688 23.9062C60.8417 23.9062 61.1994 23.7581 61.4631 23.4944C61.7268 23.2306 61.875 22.873 61.875 22.5V19.6875C61.8746 19.3147 61.7263 18.9572 61.4627 18.6936C61.199 18.43 60.8416 18.2817 60.4688 18.2812Z" fill="#78B9C1"/>
<path d="M47.8125 40.7812C46.694 40.78 45.6217 40.3351 44.8308 39.5442C44.0399 38.7533 43.595 37.681 43.5938 36.5625V33.75C43.5938 32.6311 44.0382 31.5581 44.8294 30.7669C45.6206 29.9757 46.6936 29.5313 47.8125 29.5312C48.9314 29.5313 50.0044 29.9757 50.7956 30.7669C51.5868 31.5581 52.0312 32.6311 52.0312 33.75V36.5625C52.03 37.681 51.5851 38.7533 50.7942 39.5442C50.0033 40.3351 48.931 40.78 47.8125 40.7812ZM47.8125 32.3438C47.4397 32.3442 47.0822 32.4925 46.8186 32.7561C46.555 33.0197 46.4067 33.3772 46.4062 33.75V36.5625C46.4062 36.9355 46.5544 37.2931 46.8181 37.5569C47.0819 37.8206 47.4395 37.9688 47.8125 37.9688C48.1855 37.9688 48.5431 37.8206 48.8069 37.5569C49.0706 37.2931 49.2188 36.9355 49.2188 36.5625V33.75C49.2183 33.3772 49.07 33.0197 48.8064 32.7561C48.5428 32.4925 48.1853 32.3442 47.8125 32.3438Z" fill="#78B9C1"/>
<path d="M54.8438 29.5312H57.6562V40.7812H54.8438V29.5312Z" fill="#78B9C1"/>
<path d="M64.6875 40.7812C63.569 40.78 62.4967 40.3351 61.7058 39.5442C60.9149 38.7533 60.47 37.681 60.4688 36.5625V33.75C60.4688 32.6311 60.9132 31.5581 61.7044 30.7669C62.4956 29.9757 63.5686 29.5313 64.6875 29.5312C65.8064 29.5313 66.8794 29.9757 67.6706 30.7669C68.4618 31.5581 68.9062 32.6311 68.9062 33.75V36.5625C68.905 37.681 68.4601 38.7533 67.6692 39.5442C66.8783 40.3351 65.806 40.78 64.6875 40.7812ZM64.6875 32.3438C64.3147 32.3442 63.9572 32.4925 63.6936 32.7561C63.43 33.0197 63.2817 33.3772 63.2812 33.75V36.5625C63.2812 36.9355 63.4294 37.2931 63.6931 37.5569C63.9569 37.8206 64.3145 37.9688 64.6875 37.9688C65.0605 37.9688 65.4181 37.8206 65.6819 37.5569C65.9456 37.2931 66.0938 36.9355 66.0938 36.5625V33.75C66.0933 33.3772 65.945 33.0197 65.6814 32.7561C65.4178 32.4925 65.0603 32.3442 64.6875 32.3438Z" fill="#78B9C1"/>
<path d="M71.7188 29.5312H74.5312V40.7812H71.7188V29.5312Z" fill="#78B9C1"/>
<path d="M46.4062 43.5938H49.2188V54.8438H46.4062V43.5938Z" fill="#78B9C1"/>
<path d="M56.25 54.8438C55.1315 54.8425 54.0592 54.3976 53.2683 53.6067C52.4774 52.8158 52.0325 51.7435 52.0312 50.625V47.8125C52.0312 46.6936 52.4757 45.6206 53.2669 44.8294C54.0581 44.0382 55.1311 43.5938 56.25 43.5938C57.3689 43.5938 58.4419 44.0382 59.2331 44.8294C60.0243 45.6206 60.4688 46.6936 60.4688 47.8125V50.625C60.4675 51.7435 60.0226 52.8158 59.2317 53.6067C58.4408 54.3976 57.3685 54.8425 56.25 54.8438ZM56.25 46.4062C55.8772 46.4067 55.5197 46.555 55.2561 46.8186C54.9925 47.0822 54.8442 47.4397 54.8438 47.8125V50.625C54.8438 50.998 54.9919 51.3556 55.2556 51.6194C55.5194 51.8831 55.877 52.0312 56.25 52.0312C56.623 52.0312 56.9806 51.8831 57.2444 51.6194C57.5081 51.3556 57.6562 50.998 57.6562 50.625V47.8125C57.6558 47.4397 57.5075 47.0822 57.2439 46.8186C56.9803 46.555 56.6228 46.4067 56.25 46.4062Z" fill="#78B9C1"/>
<path d="M67.5 54.8438C66.3815 54.8425 65.3092 54.3976 64.5183 53.6067C63.7274 52.8158 63.2825 51.7435 63.2812 50.625V47.8125C63.2812 46.6936 63.7257 45.6206 64.5169 44.8294C65.3081 44.0382 66.3811 43.5938 67.5 43.5938C68.6189 43.5938 69.6919 44.0382 70.4831 44.8294C71.2743 45.6206 71.7188 46.6936 71.7188 47.8125V50.625C71.7175 51.7435 71.2726 52.8158 70.4817 53.6067C69.6908 54.3976 68.6185 54.8425 67.5 54.8438ZM67.5 46.4062C67.1272 46.4067 66.7697 46.555 66.5061 46.8186C66.2425 47.0822 66.0942 47.4397 66.0938 47.8125V50.625C66.0938 50.998 66.2419 51.3556 66.5056 51.6194C66.7694 51.8831 67.127 52.0312 67.5 52.0312C67.873 52.0312 68.2306 51.8831 68.4944 51.6194C68.7581 51.3556 68.9062 50.998 68.9062 50.625V47.8125C68.9058 47.4397 68.7575 47.0822 68.4939 46.8186C68.2303 46.555 67.8728 46.4067 67.5 46.4062Z" fill="#78B9C1"/>
<path d="M52.0312 59.0625H54.8438V70.3125H52.0312V59.0625Z" fill="#78B9C1"/>
<path d="M68.9062 59.0625H71.7188V70.3125H68.9062V59.0625Z" fill="#78B9C1"/>
<path d="M61.875 70.3125C60.7565 70.3112 59.6842 69.8664 58.8933 69.0755C58.1024 68.2846 57.6575 67.2122 57.6562 66.0938V63.2812C57.6562 62.1624 58.1007 61.0893 58.8919 60.2981C59.6831 59.507 60.7561 59.0625 61.875 59.0625C62.9939 59.0625 64.0669 59.507 64.8581 60.2981C65.6493 61.0893 66.0938 62.1624 66.0938 63.2812V66.0938C66.0925 67.2122 65.6476 68.2846 64.8567 69.0755C64.0658 69.8664 62.9935 70.3112 61.875 70.3125ZM61.875 61.875C61.5022 61.8754 61.1447 62.0237 60.8811 62.2873C60.6175 62.551 60.4692 62.9084 60.4688 63.2812V66.0938C60.4688 66.4667 60.6169 66.8244 60.8806 67.0881C61.1444 67.3518 61.502 67.5 61.875 67.5C62.248 67.5 62.6056 67.3518 62.8694 67.0881C63.1331 66.8244 63.2812 66.4667 63.2812 66.0938V63.2812C63.2808 62.9084 63.1325 62.551 62.8689 62.2873C62.6053 62.0237 62.2478 61.8754 61.875 61.875Z" fill="#78B9C1"/>
</svg>
