<svg width="20" height="18" viewBox="0 0 20 18" fill="none" xmlns="http://www.w3.org/2000/svg">
<path fill-rule="evenodd" clip-rule="evenodd" d="M14.3694 0.75C15.5986 0.75 16.7811 1.23583 17.651 2.10758C18.5219 2.9775 19.0086 4.15083 19.0086 5.37917V12.6208C19.0086 15.1783 16.9278 17.25 14.3694 17.25H5.31363C2.75521 17.25 0.675293 15.1783 0.675293 12.6208V5.37917C0.675293 2.82167 2.74604 0.75 5.31363 0.75H14.3694ZM15.8278 6.745L15.9011 6.67167C16.1202 6.40584 16.1202 6.02084 15.891 5.755C15.7636 5.61842 15.5885 5.535 15.4061 5.51667C15.2136 5.50659 15.0303 5.57167 14.8919 5.7L10.7586 9C10.227 9.44092 9.46522 9.44092 8.9253 9L4.8003 5.7C4.51522 5.48917 4.12105 5.51667 3.88363 5.76417C3.63613 6.01167 3.60863 6.40584 3.81855 6.68084L3.93863 6.8L8.10947 10.0542C8.6228 10.4575 9.24522 10.6775 9.89697 10.6775C10.5469 10.6775 11.1803 10.4575 11.6927 10.0542L15.8278 6.745Z" fill="#9CA1AB"/>
</svg>
