<svg width="16" height="20" viewBox="0 0 16 20" fill="none" xmlns="http://www.w3.org/2000/svg">
<path fill-rule="evenodd" clip-rule="evenodd" d="M12.9044 5.77959V7.18515C14.4833 7.67796 15.6336 9.10721 15.6336 10.8143V15.3398C15.6336 17.4531 13.8816 19.1666 11.7215 19.1666H3.96336C1.80237 19.1666 0.050293 17.4531 0.050293 15.3398V10.8143C0.050293 9.10721 1.20158 7.67796 2.77947 7.18515V5.77959C2.78879 3.04681 5.05224 0.833252 7.82799 0.833252C10.641 0.833252 12.9044 3.04681 12.9044 5.77959ZM7.84661 2.42738C9.73747 2.42738 11.2744 3.93041 11.2744 5.77959V6.98748H4.40952V5.76137C4.41884 3.9213 5.95575 2.42738 7.84661 2.42738ZM8.65699 14.0836C8.65699 14.53 8.29372 14.8852 7.83731 14.8852C7.3902 14.8852 7.02693 14.53 7.02693 14.0836V12.0613C7.02693 11.6241 7.3902 11.2688 7.83731 11.2688C8.29372 11.2688 8.65699 11.6241 8.65699 12.0613V14.0836Z" fill="#9CA1AB"/>
</svg>
