<svg width="253" height="34" viewBox="0 0 253 34" fill="none" xmlns="http://www.w3.org/2000/svg">
<path d="M1.42893 28.983C1.63893 28.983 1.75893 28.883 1.69893 28.773C1.63893 28.663 1.63893 28.393 1.87893 28.553C2.11893 28.713 2.54894 29.403 2.58894 29.243C2.62894 29.083 2.79894 28.643 2.83894 28.813C2.87894 28.983 3.16893 29.313 3.42893 29.263C4.00858 29.2389 4.58853 29.3029 5.14894 29.453H5.57894C5.78355 29.4648 5.9855 29.5052 6.17893 29.573C6.42893 29.623 6.78893 29.573 6.88893 29.743C7.13893 30.043 7.25894 29.623 7.50894 29.743L7.72894 29.833C8.16027 29.7365 8.6076 29.7365 9.03893 29.833H9.36894C9.80894 29.833 10.3189 29.623 10.6889 29.733L11.2089 29.883C11.8901 29.7049 12.5865 29.591 13.2889 29.543L13.9489 29.603C14.596 29.7327 15.267 29.6701 15.8789 29.423C16.1766 29.3177 16.5013 29.3177 16.7989 29.423C16.8956 29.4699 17.0015 29.4942 17.1089 29.4942C17.2163 29.4942 17.3223 29.4699 17.4189 29.423C17.7289 29.313 18.1489 28.923 18.5389 29.423C18.6137 29.4474 18.6942 29.4474 18.7689 29.423C18.9589 29.103 19.1689 29.483 19.3589 29.423C19.5597 29.294 19.7789 29.1962 20.0089 29.133H20.2189C20.7023 29.2132 21.1956 29.2132 21.6789 29.133C22.4236 29.0237 23.1567 28.8463 23.8689 28.603L24.0589 28.743C24.1877 28.816 24.3353 28.8493 24.483 28.8387C24.6307 28.828 24.772 28.7738 24.8889 28.683C25.2316 28.5406 25.5913 28.4431 25.9589 28.393C26.3074 28.2618 26.6766 28.1941 27.0489 28.193C27.4489 28.253 27.7289 27.913 28.0989 28.083C28.0989 28.083 28.1789 28.163 28.1889 28.153C28.5889 28.023 28.8689 27.623 29.4089 27.823L30.6989 27.683L31.0989 27.503C31.7665 27.2497 32.4561 27.0589 33.1589 26.933L33.7889 26.853C34.0489 26.853 34.3489 26.853 34.3089 26.533C34.3955 26.4654 34.4996 26.4238 34.6089 26.413L35.2689 26.793C35.6715 26.4547 36.111 26.1629 36.5789 25.923C36.9954 25.7447 37.3939 25.527 37.7689 25.273C38.3484 25.1877 38.9332 25.1443 39.5189 25.143C40.3467 24.728 41.1393 24.2464 41.8889 23.703H42.5689H42.9389C43.4289 23.453 43.4689 22.863 43.0389 22.383L42.8289 21.933C42.5726 21.4373 42.3553 20.9224 42.1789 20.393C41.7331 19.2652 41.5386 18.0537 41.6089 16.843L41.7489 16.093C41.8089 15.263 41.9289 14.253 42.0089 13.843L41.9089 13.443C41.882 13.0213 41.9683 12.6001 42.1589 12.223L42.2889 11.833C42.5089 11.423 42.7689 10.943 42.8689 10.773C43.05 10.4572 43.1942 10.1216 43.2989 9.77299C43.2989 9.59299 43.9389 9.27298 43.9989 9.17298V9.08298L44.2789 8.44298C44.9553 7.73068 45.6768 7.06264 46.4389 6.44298L46.6589 5.96299C46.8189 5.61299 47.3289 5.64298 47.4089 5.23298C47.4089 5.02298 47.9889 4.87299 48.2989 4.68299C48.4403 4.59904 48.5683 4.49455 48.6789 4.37298C48.7989 4.23298 48.8389 4.04299 48.9789 3.93299C49.1189 3.82299 49.2389 4.24299 49.4489 3.93299C49.6589 3.62299 50.0589 3.93299 49.9489 3.57299L51.2189 2.71299L51.7589 2.39298C52.4189 2.12298 53.4589 1.67298 54.0689 1.39298L54.5589 1.07299C54.8484 0.905994 55.1677 0.797275 55.4989 0.752981C56.0058 0.614494 56.5035 0.444161 56.9889 0.242987C57.1887 0.123305 57.4125 0.0495441 57.6443 0.0270597C57.8761 0.00457538 58.1099 0.0339257 58.3289 0.112982C58.3889 0.112982 58.5089 0.112982 58.5989 0.112982H59.1589C59.8784 -0.0184545 60.6142 -0.0353324 61.3389 0.0629789H61.8889H62.4489C62.9889 0.145958 63.5331 0.199374 64.0789 0.222983C64.63 0.413806 65.1679 0.640979 65.6889 0.902991C66.6959 1.39662 67.645 2.00029 68.5189 2.70298L68.5889 3.19298L68.6489 3.59298C68.9957 3.91615 69.2952 4.28644 69.5389 4.69298L69.6989 5.00298C69.8789 5.35298 70.0389 5.70298 70.1989 6.05298C70.2489 6.14298 70.1989 6.28298 70.3089 6.34298C70.5248 6.43756 70.7352 6.54441 70.9389 6.66298C71.0989 6.80298 70.7089 7.03298 71.0389 7.23298C71.2089 7.32298 71.2189 7.60298 71.2689 7.80298C71.4293 8.27577 71.5334 8.76583 71.5789 9.26299V9.82299C71.4489 10.433 71.0789 11.683 70.7689 12.583L70.4889 13.403L70.2789 14.003C69.718 14.5404 69.1904 15.1114 68.6989 15.713L68.2089 15.943L67.7989 16.133C67.4479 16.5864 67.0337 16.9871 66.5689 17.323C66.2089 17.563 65.1789 18.423 64.9489 18.633C64.7189 18.843 64.0389 19.303 64.1489 19.463C64.2589 19.623 63.3189 19.783 62.9389 19.973C62.5589 20.163 60.9389 21.843 59.5089 22.793L58.1389 23.573C56.4389 24.573 54.6689 25.433 52.9189 26.343L52.6089 26.503C52.2189 26.633 52.4889 27.003 53.1889 27.333C54.6827 27.8803 56.209 28.3345 57.7589 28.693L58.7089 28.863L59.2589 28.963C59.7965 28.8911 60.3413 28.8911 60.8789 28.963C61.1589 29.033 62.1489 28.963 62.3989 28.963L62.6089 29.043C62.8689 29.153 62.9689 28.683 63.2489 28.943C63.3072 28.9636 63.3707 28.9636 63.4289 28.943C63.5889 28.893 64.9589 28.693 65.1189 28.683C65.2789 28.673 65.3789 28.583 65.5089 28.583C66.1489 28.633 66.7889 27.993 67.4489 28.583C67.6189 28.523 68.2789 28.353 68.9089 28.223C69.5389 28.093 71.1789 27.553 71.0489 27.223L71.6089 27.643L71.9389 27.893C72.2789 27.773 72.9389 27.573 73.4189 27.433C73.8989 27.293 75.5289 26.773 76.0589 26.703L76.4089 26.493C76.7789 26.263 77.1289 26.593 77.1389 26.553L77.4389 25.663L79.3789 25.573C79.5638 25.597 79.7474 25.6304 79.9289 25.673C80.0689 25.673 80.5489 25.133 80.9289 25.153C81.7373 24.9941 82.5254 24.7459 83.2789 24.413L83.8289 24.253C84.2039 24.0602 84.6174 23.9542 85.0389 23.943C85.2289 23.943 85.4489 23.703 85.6789 23.633H85.8089C85.9989 23.633 86.2589 23.473 86.3989 23.173L86.8489 23.513C86.8489 23.513 87.2689 23.223 87.5289 23.153L87.7389 23.093C88.0778 23.0914 88.4146 23.0409 88.7389 22.943L88.8789 22.703C88.9563 22.5897 89.0746 22.5108 89.2089 22.483C89.6889 22.483 90.4089 22.483 90.6089 22.243L91.0289 21.703C91.7389 21.493 92.4589 21.253 92.6189 21.173H92.7789C93.1189 21.173 93.4989 21.243 93.5289 20.803C93.5289 20.803 93.7589 20.723 93.8789 20.723C94.3689 20.723 94.7089 20.663 94.8789 20.193C94.9489 19.943 95.1889 20.263 95.2189 20.243L95.5489 19.983L97.5489 19.123L98.1789 18.993L98.7389 18.883C99.2489 18.633 100.099 18.243 100.629 18.023L101.069 17.753C101.249 17.633 101.709 18.053 101.689 17.513C101.689 17.423 102.169 17.303 102.439 17.203L102.739 17.083C103.223 16.9574 103.694 16.7901 104.149 16.583C104.569 16.383 106.229 15.713 106.839 15.393C107.796 15.0708 108.771 14.8037 109.759 14.593C110.18 14.3762 110.614 14.1858 111.059 14.023C111.329 13.963 112.149 13.543 112.389 13.483C112.803 13.4993 113.213 13.57 113.609 13.693C113.739 13.693 113.899 13.693 113.489 13.523L113.599 13.123C113.669 12.883 113.799 12.823 114.039 12.893C114.279 12.963 114.439 13.093 114.459 13.073L115.279 12.313C115.941 12.413 116.609 12.4698 117.279 12.483C117.159 12.483 117.099 12.263 117.379 12.153C117.973 11.9463 118.581 11.7826 119.199 11.663L119.459 11.483L119.749 11.283C120.396 11.1859 121.024 10.9868 121.609 10.693H122.849C122.991 10.569 123.159 10.4793 123.341 10.4307C123.523 10.3822 123.714 10.3761 123.899 10.413C124.139 10.523 124.759 10.413 124.659 10.073L125.269 9.99299C125.529 9.99299 125.749 9.83299 125.999 9.99299C126.109 9.99299 126.809 9.63299 127.549 9.27299L128.159 9.32299C128.486 9.41562 128.821 9.4759 129.159 9.50298C129.465 9.39677 129.754 9.24869 130.019 9.06298C130.3 8.90356 130.594 8.76969 130.899 8.66298L131.109 8.59298C131.425 8.6508 131.728 8.76968 131.999 8.94298V8.55298C131.999 8.55298 132.369 8.45298 132.579 8.44298L133.219 8.39298C133.73 8.32465 134.248 8.32465 134.759 8.39298C134.857 8.49378 134.968 8.5812 135.089 8.65299C135.115 8.62579 135.134 8.59189 135.143 8.55491C135.152 8.51792 135.15 8.47923 135.139 8.44298C135.139 8.34298 135.079 8.01299 135.139 7.99299C135.431 8.07974 135.707 8.21131 135.959 8.38299L136.039 7.86298C136.178 7.81574 136.329 7.81574 136.469 7.86298C136.699 8.10298 136.799 7.86298 136.959 7.81298C137.119 7.76298 137.239 7.98298 137.389 8.00298H137.549L138.309 7.69298C138.896 7.46778 139.512 7.3264 140.139 7.27299L140.539 7.05298C140.716 6.93304 140.925 6.86893 141.139 6.86893C141.353 6.86893 141.562 6.93304 141.739 7.05298C141.797 7.07357 141.861 7.07357 141.919 7.05298L142.469 6.45298C143.239 6.66298 143.749 6.86299 143.619 6.88299C143.489 6.90299 143.149 7.04298 143.429 7.11298L143.509 7.20298C143.759 7.47298 143.849 7.15298 143.999 7.14298C144.149 7.13298 144.299 6.94298 144.419 6.86298L144.759 6.66298C145.389 6.49298 145.759 6.52298 145.519 6.72298V6.83298V6.91298C145.581 6.97738 145.659 7.02491 145.745 7.05114C145.83 7.07737 145.921 7.08144 146.009 7.06298L146.059 6.98298L146.389 6.37298C147.029 6.37298 147.769 6.27298 148.029 6.23298H148.149L148.609 6.39298C149.015 6.29993 149.416 6.18307 149.809 6.04299C150.009 5.96299 150.679 6.17298 150.809 6.14298C150.939 6.11298 151.479 6.14298 151.569 6.08298C151.659 6.02298 152.039 5.88298 152.169 5.95298C152.446 6.07548 152.746 6.14013 153.049 6.14298C153.605 5.98768 154.15 5.79388 154.679 5.56298L155.059 5.62298L155.879 5.75298C156.661 5.52457 157.477 5.43655 158.289 5.49299L158.799 5.54299H159.079C159.461 5.44902 159.857 5.4186 160.249 5.45298C160.883 5.41915 161.511 5.30834 162.119 5.12298L162.419 5.32299L162.729 5.52299C162.997 5.49317 163.26 5.42585 163.509 5.32299C164.279 5.74299 165.169 5.32298 165.959 5.55298L166.229 5.63299C166.509 5.79299 166.819 5.86298 166.919 5.78298C167.325 5.64943 167.763 5.64943 168.169 5.78298C168.619 5.96298 170.759 6.34298 171.929 6.61298L172.929 6.88299C173.349 6.99299 173.759 7.18298 174.199 7.30298L174.699 7.44298L175.919 8.44298C176.211 8.67517 176.488 8.92567 176.749 9.19298C176.749 9.27298 176.749 9.61298 176.749 9.73298C176.749 9.85298 177.429 9.99298 177.609 10.033V10.473C177.811 10.5525 178.028 10.5883 178.245 10.5779C178.463 10.5676 178.675 10.5114 178.869 10.413C179.219 10.213 180.429 10.633 180.639 10.643C181.071 10.5981 181.507 10.6285 181.929 10.733L182.299 10.453H182.359L183.049 10.353C183.482 10.3588 183.914 10.4023 184.339 10.483C184.489 10.483 184.849 10.673 184.959 10.683C185.069 10.693 186.139 10.683 187.079 10.623L187.939 10.673C188.178 10.7335 188.429 10.7335 188.669 10.673C188.993 10.5594 189.345 10.5594 189.669 10.673L189.979 10.853H191.089H191.359C191.619 10.853 192.019 10.853 192.109 10.923L192.359 11.223C192.575 11.0509 192.802 10.8938 193.039 10.753C193.209 10.653 193.969 11.093 194.319 11.173H194.959C195.263 11.1167 195.57 11.0833 195.879 11.073C196.059 11.073 196.879 11.183 197.199 11.223H197.539L197.959 11.273L199.209 11.463C199.661 11.4759 200.113 11.4458 200.559 11.373C200.839 11.373 201.759 11.443 202.219 11.373C202.679 11.303 204.469 11.843 205.359 11.843L206.109 12.083C206.529 12.213 206.739 11.733 207.109 11.983L207.369 12.133C207.698 12.2112 208.04 12.2112 208.369 12.133H208.529C208.849 12.083 209.269 11.913 209.279 12.423C209.279 12.423 209.649 12.523 209.709 12.423L210.059 12.123C210.472 12.2057 210.877 12.3263 211.269 12.483C211.509 12.583 212.269 12.333 212.409 12.413C212.549 12.493 213.179 12.673 213.289 12.593C213.399 12.513 213.729 12.413 213.669 12.593C213.609 12.773 214.419 12.593 214.669 12.593H214.919H215.679C216.412 12.5846 217.135 12.7747 217.769 13.143L218.109 12.803C218.509 12.413 218.709 12.903 219.019 12.883C219.191 12.8456 219.369 12.8449 219.541 12.8811C219.714 12.9173 219.876 12.9895 220.019 13.093C220.194 13.0502 220.356 12.9642 220.489 12.843C220.629 12.723 221.489 12.983 221.849 13.033H222.189C222.529 13.033 222.909 12.933 223.189 13.243C223.27 13.2729 223.358 13.2729 223.439 13.243L223.809 12.653C224.288 12.8342 224.753 13.0515 225.199 13.303C225.795 13.3475 226.393 13.3475 226.989 13.303L227.219 13.473C227.609 13.753 227.739 13.353 227.989 13.473C228.239 13.593 228.699 13.753 228.799 13.673C229.149 13.393 229.389 13.743 229.679 13.673C229.973 13.6618 230.265 13.7237 230.529 13.853L230.779 13.943C231.385 13.9027 231.993 13.9027 232.599 13.943C233.199 13.943 234.939 14.163 235.139 14.223C235.339 14.283 235.829 14.303 235.989 14.373C236.307 14.3976 236.627 14.3774 236.939 14.313C237.407 14.382 237.854 14.5527 238.249 14.813L238.619 14.353C239.159 14.5247 239.71 14.6583 240.269 14.753C240.899 14.863 242.769 15.083 243.019 15.163C243.326 15.2175 243.638 15.2343 243.949 15.213C244.119 15.213 244.829 15.313 245.199 15.383L245.449 15.543C245.799 15.773 246.029 16.033 246.539 15.693L246.729 15.563C247.205 15.6435 247.662 15.8095 248.079 16.053L248.249 16.283L248.579 16.733L249.949 16.633C250.169 16.633 250.849 16.633 250.869 16.713C250.941 16.8433 251.045 16.9536 251.171 17.0339C251.297 17.1142 251.44 17.162 251.589 17.173C251.939 17.173 252.529 17.863 252.299 17.763C252.028 17.6409 251.736 17.5697 251.439 17.553C251.389 17.603 251.239 17.923 251.379 18.033H251.539C252.049 18.033 251.969 18.353 251.999 18.633C252.029 18.913 251.619 19.053 251.999 19.353L252.189 19.523C252.196 19.9342 252.173 20.3453 252.119 20.753C252.119 21.083 251.029 21.143 250.839 21.163C250.649 21.183 249.839 21.163 249.529 21.163C249.219 21.163 247.969 20.953 247.649 20.993C247.329 21.033 246.199 20.733 245.889 20.743C245.477 20.7027 245.061 20.7027 244.649 20.743C244.419 20.843 243.459 20.413 242.829 20.363C242.199 20.313 240.049 20.153 239.419 20.093C238.523 19.9639 237.635 19.787 236.759 19.563H236.569L235.189 19.703C233.699 19.493 232.079 19.253 231.569 19.163H231.109C230.68 19.1713 230.252 19.1001 229.849 18.953L229.589 18.823L228.279 18.983C227.999 18.983 227.009 18.773 226.729 18.813C226.449 18.853 225.399 18.533 224.989 18.493C224.271 18.4772 223.553 18.5073 222.839 18.583L222.719 18.473C222.459 18.233 222.239 18.473 222.009 18.413C221.767 18.3447 221.519 18.3011 221.269 18.283C220.959 18.283 220.639 18.283 220.329 18.283C220.019 18.283 219.779 18.033 219.639 18.093C219.089 18.343 218.639 17.983 218.089 18.093C217.777 18.1329 217.461 18.1329 217.149 18.093H216.879C216.57 18.0314 216.266 17.9479 215.969 17.843H215.719C215.571 17.8893 215.415 17.9007 215.262 17.8764C215.11 17.8521 214.965 17.7928 214.839 17.703L214.769 17.643C214.28 17.7864 213.777 17.8736 213.269 17.903C212.655 17.8211 212.054 17.6632 211.479 17.433L210.029 17.363C209.329 17.363 207.189 17.143 206.819 17.093C206.449 17.043 205.259 16.843 204.989 16.783H204.739C204.319 16.783 203.919 16.953 203.459 16.783C202.999 16.613 202.589 16.903 202.189 16.633L201.789 16.363C201.23 16.4002 200.668 16.4002 200.109 16.363C199.719 16.363 198.109 16.313 197.389 16.263C196.669 16.213 194.739 16.063 194.539 16.093C194.201 16.0949 193.864 16.0477 193.539 15.953C193.369 15.903 192.459 16.143 191.889 16.183C191.043 16.084 190.205 15.9303 189.379 15.723H186.769C184.189 15.723 181.719 15.663 181.279 15.593L180.949 15.923C180.784 15.9843 180.603 15.9843 180.439 15.923C180.219 15.853 180.059 15.543 179.779 15.793L179.469 16.083C179.182 16.4003 179.028 16.8155 179.039 17.243L178.799 17.483C178.799 17.533 178.879 17.683 178.899 17.783L178.949 18.043C178.768 17.9773 178.57 17.9773 178.389 18.043V18.103V18.243C178.418 18.5361 178.351 18.8307 178.199 19.083C178.049 19.393 177.199 20.133 176.779 20.083V20.443C176.764 20.5922 176.716 20.7361 176.638 20.8642C176.56 20.9923 176.455 21.1013 176.329 21.183L176.249 21.243C176.24 21.4983 176.263 21.7537 176.319 22.003L175.919 22.163H175.819C175.739 22.263 175.499 22.553 175.279 22.793C174.852 23.0596 174.381 23.2491 173.889 23.353L173.789 23.413L173.679 23.473C173.536 23.6299 173.408 23.8007 173.299 23.983C173.179 24.183 172.759 24.543 172.459 24.323L172.399 24.853V25.073C172.333 25.1601 172.249 25.2314 172.152 25.2816C172.055 25.3318 171.948 25.3596 171.839 25.363C171.374 25.418 170.917 25.5288 170.479 25.693C169.969 25.873 168.399 26.473 168.069 26.563C167.332 26.706 166.587 26.8094 165.839 26.873C165.279 26.923 163.299 27.333 162.639 27.403L162.039 27.273L161.659 27.183C161.249 27.183 160.499 27.263 160.009 27.263H159.559C159.109 27.263 158.649 27.263 158.199 27.263C158.119 27.263 157.999 27.263 157.949 27.263C157.679 27.093 157.539 26.753 157.029 27.043C156.859 27.133 156.459 26.843 156.079 26.823C155.419 26.823 154.879 26.303 154.149 26.383C154.149 26.383 154.079 26.263 154.039 26.203C153.928 26.0647 153.84 25.9094 153.779 25.743L153.699 25.383C153.399 25.463 153.219 25.383 153.299 25.283L153.219 25.163C153.099 24.983 152.949 24.813 152.809 24.643L152.489 23.933V23.743C152.409 23.543 152.229 23.093 152.069 22.743L151.939 22.423C151.793 22.1432 151.669 21.8523 151.569 21.553C151.444 21.0025 151.354 20.4447 151.299 19.883V19.573C151.35 19.2777 151.451 18.9935 151.599 18.733C151.838 18.548 152.092 18.384 152.359 18.243C152.645 18.0642 152.874 17.8075 153.019 17.503L153.159 17.323C153.319 17.103 153.819 17.193 153.829 16.783V16.583C154.056 16.6632 154.299 16.6905 154.539 16.663C154.85 16.5433 155.151 16.3995 155.439 16.233L155.669 16.153L155.899 16.083C156.199 16.033 156.449 15.883 156.449 15.743C156.449 15.603 156.609 15.173 156.809 15.173C157.009 15.173 157.559 15.123 157.489 15.053C157.419 14.983 157.339 14.813 157.389 14.763H157.449C157.538 14.7428 157.63 14.7428 157.719 14.763C158.479 14.923 158.719 14.413 159.149 14.083C159.579 13.753 159.479 13.803 159.689 14.143L159.929 14.523C160.029 14.293 160.189 14.143 160.279 14.193C160.369 14.243 160.709 14.193 160.669 14.123L160.609 14.073L160.279 13.753L162.009 12.983L162.599 12.733C162.782 12.6394 162.983 12.585 163.189 12.573C163.642 12.7424 164.134 12.7839 164.609 12.693L164.889 12.603C165.093 12.6504 165.305 12.6504 165.509 12.603L165.569 12.543C165.649 12.473 165.709 12.323 165.769 12.323C166.392 12.2573 167.005 12.1232 167.599 11.923L168.159 11.803C168.819 11.733 169.739 11.603 170.209 11.523L170.579 11.393C170.889 11.283 171.029 11.153 171.359 11.393L171.579 11.543C171.705 11.4661 171.847 11.4182 171.994 11.4026C172.141 11.387 172.289 11.4042 172.429 11.453C172.569 11.563 172.909 11.193 172.979 11.083C173.049 10.973 173.619 11.083 173.919 11.083L174.039 10.813V10.753C174.149 10.673 173.979 10.593 173.649 10.553C173.167 10.4535 172.671 10.4535 172.189 10.553L171.899 10.353C171.633 10.1691 171.344 10.0211 171.039 9.91298L170.769 9.83298C170.412 9.81463 170.054 9.86907 169.719 9.99299C169.479 10.093 167.989 9.69298 166.829 9.70298C165.669 9.71298 162.429 9.70298 162.189 9.59298C161.949 9.48298 161.259 9.91298 161.089 9.98298C160.919 10.053 159.949 9.81299 159.469 9.82299L159.039 9.91298L158.569 10.023C157.961 10.0752 157.357 10.1621 156.759 10.283L156.359 10.113L156.179 10.033C156.039 9.85298 155.889 9.94298 155.849 10.253L155.359 10.123L154.889 10.003C154.254 10.1049 153.612 10.1551 152.969 10.153L152.499 10.463L152.339 10.563C151.721 10.437 151.089 10.3933 150.459 10.433C149.839 10.433 148.279 10.923 148.249 10.843C148.207 10.7874 148.146 10.7494 148.077 10.7365C148.009 10.7236 147.938 10.7366 147.879 10.773C147.729 10.873 147.199 11.053 146.879 11.253L146.779 11.183C146.349 10.873 145.959 11.073 145.549 11.183C145.251 11.1008 144.937 11.1008 144.639 11.183C144.209 11.273 142.709 11.513 142.289 11.603C141.628 11.7243 140.95 11.7243 140.289 11.603L140.059 11.983C139.969 12.143 139.559 12.213 139.279 12.263C138.999 12.313 138.649 12.263 138.339 12.263C138.216 12.2659 138.097 12.3079 137.999 12.383C137.866 12.5244 137.697 12.6277 137.511 12.6822C137.325 12.7367 137.127 12.7404 136.939 12.693L136.469 12.613C135.695 12.872 134.903 13.0726 134.099 13.213C133.209 13.373 130.159 14.093 129.219 14.293L128.359 14.453C127.736 14.4895 127.134 14.6858 126.609 15.023C126.509 15.0828 126.395 15.114 126.279 15.113C126.019 14.783 125.749 15.063 125.549 15.113C124.97 15.3515 124.361 15.5064 123.739 15.573H123.229C122.729 15.8671 122.191 16.0892 121.629 16.233C120.991 16.399 120.369 16.6198 119.769 16.893C119.439 17.043 118.309 17.323 118.019 17.413L114.489 18.613L113.219 19.043C113.06 19.0716 112.907 19.1292 112.769 19.213L112.439 19.523C112.024 19.6469 111.619 19.8041 111.229 19.993C111.039 20.093 110.229 20.243 110.029 20.333L109.879 20.463C109.765 20.588 109.623 20.6846 109.465 20.7454C109.307 20.8061 109.137 20.8293 108.969 20.813C108.768 20.8349 108.573 20.8997 108.399 21.003C108.163 21.1611 107.907 21.2888 107.639 21.383L106.529 21.583C105.689 22.0918 104.813 22.5397 103.909 22.923C103.245 23.2219 102.598 23.5557 101.969 23.923C101.779 24.033 100.969 24.203 100.799 24.283C100.301 24.4803 99.8134 24.7039 99.3389 24.953L98.9889 25.163C98.8794 25.2244 98.7542 25.2522 98.6289 25.243L98.2489 25.163C97.9289 25.333 96.8489 25.793 95.8589 26.163L94.8589 26.323C94.8589 26.323 94.7989 26.323 94.7589 26.383L94.1589 26.623C93.5436 26.8266 92.9423 27.0705 92.3589 27.353C92.0589 27.523 90.5689 27.773 89.9589 27.953C89.3489 28.133 87.5289 28.953 87.0589 29.143C86.5889 29.333 84.6689 29.803 83.8489 29.993L83.2389 30.313L82.7289 30.583C82.2077 30.6323 81.6941 30.7431 81.1989 30.913C80.9389 31.023 79.5689 31.333 78.8589 31.503L78.2689 31.713C77.7289 31.903 77.1589 31.643 76.6389 32.013C76.3089 32.243 75.6389 32.173 75.1589 32.263C74.1589 32.443 73.1589 32.643 72.1589 32.843H72.0789C71.4563 32.945 70.8288 33.0151 70.1989 33.053L69.3389 33.133C68.7789 33.193 68.2389 33.283 67.6889 33.353C67.1389 33.423 66.5289 33.193 66.0389 33.563C66.0389 33.563 65.8389 33.563 65.7789 33.563C65.3389 33.763 65.0089 33.073 64.4589 33.513L64.2389 33.703C63.6065 33.6224 62.9877 33.4576 62.3989 33.213L61.9489 33.413L61.5489 33.603C61.0286 33.4391 60.4842 33.3647 59.9389 33.383L59.5289 33.143C59.3189 33.023 58.9089 33.143 58.5989 33.143H58.2889C58.2093 33.0309 58.1045 32.9391 57.9829 32.8748C57.8613 32.8106 57.7264 32.7757 57.5889 32.773H57.3489C57.1689 32.773 56.9689 32.993 56.7989 32.773C56.6289 32.553 56.0589 32.483 55.6189 32.413C54.9842 32.2626 54.3596 32.0722 53.7489 31.843L53.5889 31.793C53.4389 31.793 53.3489 31.623 53.3889 31.533C53.4289 31.443 53.5289 31.183 53.4989 31.173C53.3905 31.1715 53.2848 31.2067 53.1989 31.273C53.0422 31.3455 52.8716 31.3831 52.6989 31.3831C52.5262 31.3831 52.3556 31.3455 52.1989 31.273L51.9989 31.093L51.8989 30.993C51.8489 30.843 51.7389 30.753 51.6689 30.793C51.5989 30.833 51.3589 30.713 51.2789 30.563C51.1989 30.413 50.8689 29.983 50.8389 30.073C50.8089 30.163 50.6489 30.363 50.5689 30.273C50.3215 30.0965 50.0527 29.952 49.7689 29.843L49.5289 29.783C48.9389 29.613 48.8289 29.483 48.5289 28.783V28.653C48.3789 28.503 48.1789 28.553 48.0689 28.763L47.8089 28.603L47.7189 28.543C47.282 28.5605 46.8489 28.631 46.4289 28.753L45.9289 28.933L44.9289 29.283C43.8189 29.653 42.5489 30.063 42.0989 30.193C41.6489 30.323 40.0189 30.793 39.4789 30.913C38.9389 31.033 37.1589 31.433 36.7089 31.593C36.2589 31.753 34.7089 31.903 34.5489 32.003H34.3689H33.6989C33.0089 32.143 31.8889 32.343 31.2189 32.453C30.5489 32.563 28.4489 32.823 28.0889 32.943H27.7789H27.4389C27.0589 32.943 26.5989 33.073 26.4389 33.123C26.2789 33.173 24.5389 33.393 23.1089 33.613L21.7689 33.433H21.3889C20.8943 33.4863 20.4034 33.5698 19.9189 33.683H19.5389C19.0889 33.683 18.6389 33.683 18.1889 33.683H17.7789C17.1481 33.6719 16.5193 33.6083 15.8989 33.493L15.2789 33.643L14.7989 33.753L13.1689 33.353C12.6499 33.3382 12.1322 33.2915 11.6189 33.213L11.3089 33.573C11.0261 33.5961 10.7418 33.5961 10.4589 33.573C9.8912 33.3783 9.33381 33.1547 8.78893 32.903L8.53893 32.823L8.15894 32.703C8.15894 32.973 7.95893 33.153 7.80893 33.113C7.65893 33.073 7.01893 32.783 6.62893 32.603L6.49893 32.353L6.23893 31.823C5.83469 32.1288 5.33503 32.2812 4.82894 32.253L4.60893 31.833C4.56826 31.7893 4.51856 31.7551 4.46329 31.7326C4.40802 31.7102 4.34852 31.7001 4.28893 31.703C3.60893 31.873 3.42894 31.293 2.96894 31.133C2.86894 31.133 2.75894 30.893 2.79894 30.843C2.83894 30.793 2.99893 30.613 2.70893 30.593C2.57246 30.6032 2.43541 30.6032 2.29894 30.593C2.14894 30.543 2.02894 30.413 1.86894 30.383C1.52894 30.383 1.50893 30.133 1.66893 30.013L2.04894 29.733C1.74667 29.624 1.45537 29.4868 1.17893 29.323C0.988934 29.213 0.268934 29.053 0.178934 28.773L0.0489369 28.523C-0.111063 28.213 0.158934 27.983 0.318934 27.743C0.724022 27.9371 1.04918 28.2658 1.23893 28.673L1.48893 29.073L1.42893 28.983ZM50.4289 20.233C50.2089 20.103 50.1789 19.973 50.3589 19.943C50.8141 19.8573 51.2596 19.7267 51.6889 19.553L51.7489 19.243C51.8289 18.813 52.3589 18.823 52.6189 18.573C52.9082 18.3566 53.22 18.1722 53.5489 18.023C53.8428 17.825 54.1503 17.6479 54.4689 17.493C55.0702 17.3059 55.5733 16.889 55.8689 16.333C55.9689 16.103 55.9889 15.923 56.3589 15.983C56.7289 16.043 56.7289 15.893 56.7489 15.673C56.7489 15.613 57.0889 15.593 57.1589 15.503C57.2289 15.413 57.0889 15.143 57.1589 15.133L57.7689 14.953C58.1089 14.503 58.5089 13.953 58.6589 13.833C59.3025 13.3589 59.9701 12.9184 60.6589 12.513L61.1589 11.913L61.5389 11.463C62.1589 11.113 62.6189 10.703 62.5389 10.553L62.5889 10.503L62.6889 10.423C63.0111 10.2477 63.283 9.99299 63.4789 9.68299C63.7289 9.33299 64.4789 8.15298 64.5889 7.89298C64.8198 7.38446 64.9909 6.8509 65.0989 6.30298C65.0989 5.95298 64.0289 5.30298 63.8889 5.30298C63.6164 5.21152 63.3215 5.21152 63.0489 5.30298C62.8289 5.41298 61.8489 5.57298 61.2989 5.72298C60.3511 5.97177 59.4165 6.26882 58.4989 6.61298C58.0589 6.82298 56.3489 7.87298 55.6089 8.39298L54.7189 8.59298C54.6689 8.59298 54.6689 8.72299 54.6089 8.76299C54.3489 8.97299 53.8689 9.14298 53.8389 9.36298C53.7689 9.86298 53.1589 9.59298 52.9789 9.87298C52.9789 9.87298 52.7789 9.87298 52.7689 9.95298C52.5489 10.553 51.8189 10.803 51.4289 11.273C51.0389 11.743 50.7389 12.273 50.2989 12.753C49.9097 13.1514 49.5735 13.5984 49.2989 14.083C49.0589 14.513 48.6989 14.883 48.4689 15.333L48.2589 15.743C47.9799 16.0441 47.7412 16.3803 47.5489 16.743L47.6089 16.803C47.9889 17.123 47.9189 17.273 47.3889 17.363C47.3089 17.363 47.2689 17.683 47.2889 17.853V17.983C47.3179 18.289 47.3179 18.597 47.2889 18.903L46.9989 19.253L46.7789 19.503C46.7866 19.9062 46.7292 20.308 46.6089 20.693C46.5089 20.863 47.0089 21.353 47.0189 21.533C47.0289 21.713 48.0689 21.283 48.6389 20.893L49.2689 20.683C49.5389 20.593 49.8289 20.533 50.0889 20.433L50.4289 20.233ZM174.739 17.333C175.179 17.213 175.339 17.063 175.099 17.003C174.859 16.943 174.219 16.703 174.099 16.773C173.979 16.843 173.399 16.933 173.249 17.023C173.099 17.113 172.389 16.923 172.039 16.973C171.689 17.023 170.579 17.333 170.199 17.333C169.819 17.333 168.969 17.893 168.739 17.833H168.529C168.389 17.833 168.289 18.063 168.139 18.113C167.989 18.163 167.849 17.973 167.769 18.013L167.439 18.163C167.136 18.3592 166.795 18.4888 166.439 18.543C165.769 18.7388 165.117 18.9897 164.489 19.293L163.929 19.433L163.389 19.573C163.169 19.863 162.839 20.013 162.659 19.913H162.539L162.259 19.983C161.989 20.133 161.439 20.463 161.039 20.723C160.639 20.983 159.199 21.613 158.939 21.773L158.669 21.883L158.419 21.983C158.3 22.1235 158.17 22.254 158.029 22.373C158.029 22.433 157.959 22.533 158.029 22.573L158.089 22.643C158.294 22.711 158.505 22.7579 158.719 22.783C159.201 22.8375 159.687 22.8375 160.169 22.783L160.449 22.713L160.799 22.633C161.301 22.5832 161.807 22.5832 162.309 22.633L162.749 22.543L163.079 22.473C163.279 22.7023 163.544 22.866 163.839 22.943L163.929 22.883L164.359 22.553L165.819 22.463L166.149 22.403C166.519 22.343 166.919 22.113 166.999 22.663C166.999 22.663 167.369 22.733 167.419 22.663L167.679 22.413C167.909 22.113 168.169 21.913 168.269 21.983C168.369 22.053 168.509 22.233 168.409 22.273C168.309 22.313 168.259 22.373 168.729 22.273C169.199 22.173 170.139 21.523 170.169 21.703C170.199 21.883 170.479 22.143 170.699 21.953C171.015 21.6528 171.349 21.3723 171.699 21.113C171.859 21.043 172.359 20.893 172.319 20.793C172.279 20.693 172.909 20.203 173.259 19.953L173.419 19.613C173.509 19.423 173.609 19.143 173.779 19.093C174.139 19.003 174.189 18.873 174.249 18.593C174.309 18.313 174.709 18.053 174.739 17.783V17.333Z" fill="#0478F9"/>
</svg>
