<svg width="20" height="16" viewBox="0 0 20 16" fill="none" xmlns="http://www.w3.org/2000/svg">
<path fill-rule="evenodd" clip-rule="evenodd" d="M18.9703 6.66088C18.8462 6.78145 18.6778 6.85035 18.5005 6.85035C17.8444 6.85035 17.3125 7.36708 17.3125 7.99577C17.3125 8.62877 17.8382 9.14293 18.4881 9.14982C18.8542 9.15326 19.1654 9.40129 19.1654 9.75698V11.966C19.1654 13.8254 17.6139 15.3334 15.6991 15.3334H12.809C12.5102 15.3334 12.2682 15.0983 12.2682 14.8081V12.9478C12.2682 12.5861 11.9756 12.3019 11.6033 12.3019C11.2398 12.3019 10.9384 12.5861 10.9384 12.9478V14.8081C10.9384 15.0983 10.6964 15.3334 10.3985 15.3334H4.29834C2.39232 15.3334 0.832031 13.8263 0.832031 11.966V9.75698C0.832031 9.40129 1.1432 9.15326 1.50934 9.14982C2.16005 9.14293 2.68487 8.62877 2.68487 7.99577C2.68487 7.3843 2.17068 6.91924 1.49692 6.91924C1.31962 6.91924 1.15118 6.85034 1.02707 6.72977C0.902953 6.6092 0.832031 6.44557 0.832031 6.27332V4.04275C0.832031 2.18595 2.39586 0.666748 4.30721 0.666748H10.3985C10.6964 0.666748 10.9384 0.901863 10.9384 1.1921V3.39683C10.9384 3.74993 11.2398 4.04275 11.6033 4.04275C11.9756 4.04275 12.2682 3.74993 12.2682 3.39683V1.1921C12.2682 0.901863 12.5102 0.666748 12.809 0.666748H15.6991C17.6139 0.666748 19.1654 2.17389 19.1654 4.03414V6.20443C19.1654 6.37667 19.0944 6.5403 18.9703 6.66088ZM11.6033 10.6311C11.9756 10.6311 12.2682 10.3383 12.2682 9.9852V6.5403C12.2682 6.1872 11.9756 5.89439 11.6033 5.89439C11.2398 5.89439 10.9384 6.1872 10.9384 6.5403V9.9852C10.9384 10.3383 11.2398 10.6311 11.6033 10.6311Z" fill="#9CA1AB"/>
</svg>
