<svg width="32" height="30" viewBox="0 0 32 30" fill="none" xmlns="http://www.w3.org/2000/svg">
<path d="M22.1269 0.976562H3.61875C1.62313 0.976562 0 2.59969 0 4.59531V20.8141C0 21.5822 0.868687 22.0152 1.48187 21.5772L6.63625 17.8997C7.06875 17.5916 7.5775 17.4284 8.10875 17.4284H19.4456C21.4412 17.4284 23.0644 15.8053 23.0644 13.8097V1.91406C23.0644 1.39656 22.6444 0.976562 22.1269 0.976562ZM17.5731 12.3334H6.74125C6.22375 12.3334 5.80375 11.9141 5.80375 11.3959C5.80375 10.8784 6.22375 10.4584 6.74125 10.4584H17.5731C18.0906 10.4584 18.5106 10.8784 18.5106 11.3959C18.5106 11.9141 18.0906 12.3334 17.5731 12.3334ZM17.5731 7.95844H6.74125C6.22375 7.95844 5.80375 7.53906 5.80375 7.02094C5.80375 6.50344 6.22375 6.08344 6.74125 6.08344H17.5731C18.0906 6.08344 18.5106 6.50344 18.5106 7.02094C18.5106 7.53906 18.0906 7.95844 17.5731 7.95844Z" fill="white"/>
<path d="M31.9999 11.8674V28.0855C31.9999 28.8485 31.1356 29.2898 30.518 28.8487L25.3637 25.1718C24.9312 24.8637 24.4224 24.7005 23.8912 24.7005H12.5543C10.5587 24.7005 8.93555 23.0768 8.93555 21.0812V19.3037H19.4455C22.4749 19.3037 24.9393 16.8393 24.9393 13.8099V8.24805H28.3812C30.3768 8.24805 31.9999 9.8718 31.9999 11.8674Z" fill="white"/>
</svg>
