<svg width="36" height="36" viewBox="0 0 36 36" fill="none" xmlns="http://www.w3.org/2000/svg">
<ellipse rx="18" ry="17.9154" transform="matrix(-1 0 0 1 18 18.0846)" fill="#F4F4F4"/>
<g clip-path="url(#clip0)">
<path d="M18 28C23.5228 28 28 23.5228 28 18C28 12.4772 23.5228 8 18 8C12.4772 8 8 12.4772 8 18C8 23.5228 12.4772 28 18 28Z" fill="#FFD93B"/>
<path d="M27.9997 18C27.9997 23.525 23.5216 28 17.9997 28C14.8559 28 12.0497 26.55 10.2153 24.2781C11.931 25.6656 14.1153 26.4937 16.4934 26.4937C22.0153 26.4937 26.4934 22.0187 26.4934 16.4937C26.4934 14.1156 25.6653 11.9312 24.2778 10.2156C26.5466 12.05 27.9997 14.8562 27.9997 18Z" fill="#F4C534"/>
<path d="M23.1707 20.0806C24.0494 20.3213 22.6413 24.9937 18.0001 25.0281C13.3588 24.9937 11.9507 20.3213 12.8294 20.0806C13.5319 19.7344 15.4163 21.6531 18.0001 21.6531C20.6194 21.6525 22.4682 19.7344 23.1707 20.0806Z" fill="#3E4347"/>
<path d="M14.7714 18.0306C14.717 18.0975 14.6258 18.1138 14.5508 18.0725C13.9883 17.7769 11.7258 16.51 11.5089 15.3306C11.3714 14.585 11.8633 13.8681 12.6089 13.7306C13.1464 13.6306 13.667 13.86 13.9714 14.2806C14.1008 13.7806 14.5089 13.3806 15.0464 13.285C15.792 13.1475 16.5045 13.6394 16.642 14.385C16.8589 15.5638 15.192 17.5513 14.7714 18.0306Z" fill="#E24B4B"/>
<path d="M15.0084 17.7514C14.9128 17.8682 14.8291 17.9639 14.7709 18.0307C14.7166 18.0976 14.6253 18.1139 14.5503 18.0726C13.9878 17.777 11.7253 16.5101 11.5085 15.3307C11.3835 14.6601 11.7666 14.0138 12.3878 13.7932C12.071 14.1013 11.9085 14.5601 11.996 15.0263C12.2085 16.1888 14.4041 17.4345 15.0084 17.7514Z" fill="#D03F3F"/>
<g opacity="0.2">
<path opacity="0.2" d="M16.021 14.2265C15.9117 13.9479 15.671 13.7818 15.4833 13.8555C15.2957 13.9292 15.2322 14.2147 15.3416 14.4932C15.4509 14.7718 15.6917 14.9378 15.8793 14.8642C16.0669 14.7905 16.1304 14.505 16.021 14.2265Z" fill="white"/>
</g>
<path d="M20.9979 18.0306C21.0523 18.0975 21.1435 18.1138 21.2185 18.0725C21.781 17.7769 24.0435 16.51 24.2604 15.3306C24.3979 14.585 23.906 13.8681 23.1604 13.7306C22.6229 13.6306 22.1023 13.86 21.7979 14.2806C21.6685 13.7806 21.2604 13.3806 20.7229 13.285C19.9773 13.1475 19.2648 13.6394 19.1273 14.385C18.9104 15.5638 20.5767 17.5513 20.9979 18.0306Z" fill="#E24B4B"/>
<path d="M20.7607 17.7514C20.8564 17.8682 20.9401 17.9639 20.9982 18.0307C21.0526 18.0976 21.1439 18.1139 21.2189 18.0726C21.7814 17.777 24.0439 16.5101 24.2607 15.3307C24.3857 14.6601 24.0026 14.0138 23.3814 13.7932C23.6982 14.1013 23.8607 14.5601 23.7732 15.0263C23.5607 16.1888 21.3645 17.4345 20.7607 17.7514Z" fill="#D03F3F"/>
<g opacity="0.2">
<path opacity="0.2" d="M20.2852 13.8562C20.0976 13.7826 19.8569 13.9487 19.7475 14.2272C19.6382 14.5057 19.7016 14.7913 19.8893 14.8649C20.0769 14.9386 20.3176 14.7725 20.427 14.494C20.5363 14.2154 20.4729 13.9299 20.2852 13.8562Z" fill="white"/>
</g>
<path d="M18.0002 25.0282C18.8964 25.0213 19.6708 24.8407 20.3327 24.5538C20.1827 24.1132 19.9133 23.7288 19.5589 23.4407C19.2746 23.2063 18.8839 23.1638 18.5327 23.2775C18.3302 23.3413 18.1027 23.3807 17.8508 23.3807C17.6552 23.3807 17.4746 23.3557 17.3077 23.3169C16.9277 23.2213 16.5302 23.3344 16.2533 23.6119C15.9914 23.8738 15.7908 24.1963 15.6689 24.555C16.3308 24.8413 17.1046 25.0219 18.0002 25.0282Z" fill="#E24B4B"/>
</g>
<defs>
<clipPath id="clip0">
<rect width="20" height="20" fill="white" transform="translate(8 8)"/>
</clipPath>
</defs>
</svg>
