<svg width="36" height="36" viewBox="0 0 36 36" fill="none" xmlns="http://www.w3.org/2000/svg">
<ellipse rx="18" ry="17.9154" transform="matrix(-1 0 0 1 18 18.0846)" fill="#F4F4F4"/>
<g clip-path="url(#clip0)">
<path d="M17.8714 28.1022C23.5646 28.1022 28.1799 23.5087 28.1799 17.8423C28.1799 12.1758 23.5646 7.58228 17.8714 7.58228C12.1782 7.58228 7.56299 12.1758 7.56299 17.8423C7.56299 23.5087 12.1782 28.1022 17.8714 28.1022Z" fill="#FFD54F"/>
<path d="M26.0796 8.40649C25.5822 8.40649 25.1131 8.57322 24.7438 8.8605C24.3744 8.57322 23.9053 8.40649 23.408 8.40649C22.25 8.40649 21.3076 9.30253 21.3076 10.4038C21.3076 12.1198 23.8632 13.9819 24.3744 14.3376C24.486 14.4146 24.6149 14.453 24.7438 14.453C24.8726 14.453 25.0015 14.4146 25.1131 14.3376C25.6243 13.9811 28.1799 12.1198 28.1799 10.4038C28.1799 9.30253 27.2375 8.40649 26.0796 8.40649Z" fill="#E53935"/>
<path d="M12.3349 22.0864C11.8376 22.0864 11.3685 22.2532 10.9991 22.5404C10.6298 22.2532 10.1607 22.0864 9.66333 22.0864C8.50535 22.0864 7.56299 22.9825 7.56299 24.0837C7.56299 25.7997 10.1186 27.6619 10.6298 28.0175C10.7414 28.0945 10.8703 28.133 10.9991 28.133C11.128 28.133 11.2568 28.0945 11.3685 28.0175C11.8797 27.661 14.4353 25.7997 14.4353 24.0837C14.4353 22.9825 13.4929 22.0864 12.3349 22.0864Z" fill="#E53935"/>
<path d="M15.5093 17.2009C15.1537 17.2009 14.865 16.9136 14.865 16.5596C14.865 16.0885 14.4802 15.7046 14.006 15.7046C13.5318 15.7046 13.147 16.0885 13.147 16.5596C13.147 16.9136 12.8583 17.2009 12.5027 17.2009C12.147 17.2009 11.8584 16.9136 11.8584 16.5596C11.8584 15.3814 12.8214 14.4221 14.006 14.4221C15.1906 14.4221 16.1536 15.3814 16.1536 16.5596C16.1536 16.9136 15.8649 17.2009 15.5093 17.2009Z" fill="#6D4C41"/>
<path d="M23.2405 17.2009C22.8849 17.2009 22.5962 16.9136 22.5962 16.5596C22.5962 16.0885 22.2114 15.7046 21.7372 15.7046C21.263 15.7046 20.8782 16.0885 20.8782 16.5596C20.8782 16.9136 20.5895 17.2009 20.2339 17.2009C19.8782 17.2009 19.5896 16.9136 19.5896 16.5596C19.5896 15.3814 20.5526 14.4221 21.7372 14.4221C22.9218 14.4221 23.8848 15.3814 23.8848 16.5596C23.8848 16.9136 23.5961 17.2009 23.2405 17.2009Z" fill="#6D4C41"/>
<path d="M17.8715 22.9721C15.9954 22.9721 14.2327 22.2454 12.9063 20.9244C12.6546 20.6739 12.6546 20.2677 12.9063 20.0172C13.158 19.7667 13.566 19.7667 13.8177 20.0172C14.9001 21.0962 16.3399 21.6896 17.8715 21.6896C19.4032 21.6896 20.8429 21.0962 21.9262 20.0181C22.1779 19.7676 22.5859 19.7676 22.8376 20.0181C23.0893 20.2686 23.0893 20.6747 22.8376 20.9252C21.5104 22.2454 19.7477 22.9721 17.8715 22.9721Z" fill="#6D4C41"/>
</g>
<defs>
<clipPath id="clip0">
<rect width="20.6169" height="20.52" fill="white" transform="translate(7.56299 7.58228)"/>
</clipPath>
</defs>
</svg>
